<?xml version="1.0" encoding="UTF-8"?>
<svg width="283px" height="283px" viewBox="0 0 283 283" version="1.1" xmlns="http://www.w3.org/2000/svg" xmlns:xlink="http://www.w3.org/1999/xlink">
    <!-- Generator: Sketch 47.1 (45422) - http://www.bohemiancoding.com/sketch -->
    <title>15days</title>
    <desc>Created with Sketch.</desc>
    <defs></defs>
    <g id="tarifa" stroke="none" stroke-width="1" fill="none" fill-rule="evenodd">
        <g id="Desktop-HD" transform="translate(-292.000000, -2430.000000)">
            <g id="15days" transform="translate(292.000000, 2430.000000)">
                <g>
                    <path d="M231.627845,20.2143737 C226.574251,20.2143737 222.473621,16.0848659 222.473621,11.0601502 L222.473621,9.18310119 C222.473621,4.12950777 218.344114,0.0288776767 213.319398,0.0288776767 L211.442349,0.0288776767 C206.388755,0.0288776767 202.259248,4.15838545 202.259248,9.18310119 L202.259248,11.0601502 C202.259248,16.1137436 198.12974,20.2143737 193.105024,20.2143737 L90.040596,20.2143737 C84.9870026,20.2143737 80.8574948,16.0848659 80.8574948,11.0601502 L80.8574948,9.18310119 C80.8574948,4.12950777 76.727987,0.0288776767 71.7032713,0.0288776767 L69.8262223,0.0288776767 C64.7726289,-3.0149494e-15 60.6431211,4.12950777 60.6431211,9.18310119 L60.6431211,11.0601502 C60.6431211,16.1137436 56.5136133,20.2143737 51.4888976,20.2143737 L9.15422352,20.2143737 C4.12950777,20.2143737 0,24.3438815 0,29.3974749 L0,273.847008 C0,278.900602 4.12950777,283.001232 9.15422352,283.001232 L273.818131,283.001232 C278.871724,283.001232 282.972354,278.871724 282.972354,273.847008 L282.972354,29.3974749 C282.972354,24.3438815 278.842846,20.2432514 273.818131,20.2432514 L231.627845,20.2432514 L231.627845,20.2143737 Z M262.786858,253.632635 C262.786858,258.686228 258.65735,262.786858 253.632635,262.786858 L29.3685972,262.786858 C24.3438815,262.786858 20.2143737,258.65735 20.2143737,253.632635 L20.2143737,49.6118486 C20.2143737,44.5582552 24.3438815,40.4576251 29.3685972,40.4576251 L51.4600199,40.4576251 C56.5136133,40.4576251 60.6142434,44.5871328 60.6142434,49.6118486 L60.6142434,71.7032713 C60.6142434,76.7568647 64.7437512,80.8574948 69.7684669,80.8574948 L71.6455159,80.8574948 C76.6991093,80.8574948 80.7997394,76.727987 80.7997394,71.7032713 L80.7997394,49.6118486 C80.7997394,44.5582552 84.9292472,40.4576251 89.953963,40.4576251 L192.989513,40.4576251 C198.043107,40.4576251 202.143737,44.5871328 202.143737,49.6118486 L202.143737,71.7032713 C202.143737,76.7568647 206.273245,80.8574948 211.326838,80.8574948 L213.203887,80.8574948 C218.257481,80.8574948 222.386988,76.727987 222.386988,71.7032713 L222.386988,49.6118486 C222.386988,44.5582552 226.516496,40.4576251 231.541212,40.4576251 L253.546002,40.4576251 C258.599595,40.4576251 262.700225,44.5871328 262.700225,49.6118486 L262.786858,253.632635 L262.786858,253.632635 Z" id="Shape" fill="#000000" fill-rule="nonzero"></path>
                    <rect id="Rectangle-path" x="20.2143737" y="103.641982" width="242.543607" height="128.505661"></rect>
                    <g id="Group" transform="translate(86.633030, 103.382083)" fill-rule="nonzero" fill="#E34649">
                        <path d="M12.9660768,37.0500592 L0.231021414,22.1780557 L20.8785603,0.231021414 L43.5186588,0.231021414 L43.5186588,94.6032689 L12.9660768,94.6032689 L12.9660768,37.0500592 Z M29.8017624,83.3120973 L29.8017624,11.5799484 L25.8455207,11.5799484 L14.9586365,23.1887744 L17.0955846,25.5856216 L26.1631751,16.4025204 L26.1631751,83.340975 L29.8017624,83.340975 L29.8017624,83.3120973 Z" id="Shape"></path>
                        <path d="M50.3337905,69.5952009 C57.4088213,69.5952009 62.7800692,68.3245831 66.4764118,65.7833475 C70.1438767,63.242112 71.992048,59.8345461 71.992048,55.5895277 C71.992048,52.6728823 71.2701061,50.3049128 69.7973446,48.5144969 C68.3245831,46.7240809 66.4475341,45.3379524 64.13732,44.3272338 C61.8271058,43.3453927 59.2858703,42.6812062 56.4847356,42.3346741 C53.7124787,42.0170196 51.0268548,41.8437536 48.4856192,41.8437536 L65.4656931,0.231021414 L103.815248,0.231021414 L103.815248,26.6829733 L86.1421096,26.6829733 C87.6437488,27.7225696 89.0876327,28.848799 90.4448835,30.0905391 C91.8021343,31.3034016 93.1016297,32.68953 94.3433698,34.1911692 C96.4225625,36.7324048 98.2996115,39.8800715 100.003394,43.6052918 C101.707177,47.3305121 102.54463,51.7487967 102.54463,56.8312678 C102.54463,63.8196655 101.129624,69.7973446 98.2996115,74.7931827 C95.4695992,79.7890208 91.7732566,83.9185285 87.181706,87.181706 C82.6190331,90.4448835 77.3921736,92.8417306 71.5588829,94.4011252 C65.6967145,95.9605197 59.8056685,96.740217 53.8568671,96.740217 C52.4418609,96.740217 51.6044083,96.6824616 51.3156315,96.5958286 C50.8535887,96.5958286 50.5070566,96.5380732 50.3337905,96.4514402 L50.3337905,69.5952009 L50.3337905,69.5952009 Z M59.3725033,84.7271035 C62.2025156,84.7271035 65.3213047,84.2073053 68.6999929,83.1677089 C72.1075587,82.1281126 75.2841032,80.5109627 78.2585039,78.2873816 C81.2329046,76.0638005 83.7163848,73.2049105 85.7666998,69.7395893 C87.7881372,66.2453904 88.7988559,62.0870049 88.7988559,57.2933106 C88.7988559,52.2974725 87.8170149,48.1679648 85.8244552,44.9047873 C83.8318955,41.6416098 81.6660697,39.0714966 79.3269779,37.1944476 C76.7857424,35.0286219 73.6669533,33.2670836 69.9994883,31.9675881 L76.7857424,14.9875142 L94.3433698,14.9875142 L94.3433698,11.5799484 L74.5044059,11.5799484 L65.4368154,33.9312701 C68.9310143,34.7687228 72.1941918,36.1837289 75.1974702,38.1762886 C77.6520727,39.8800715 79.9045315,42.248041 81.9837242,45.3090748 C84.0629169,48.3701085 85.1025133,52.3552279 85.1025133,57.2644329 C85.1025133,62.173638 84.0917946,66.187635 82.0703572,69.3064241 C80.0489198,72.4252132 77.623195,74.8798157 74.850938,76.6702317 C72.0786811,78.4606476 69.2197911,79.7023877 66.3031457,80.3376966 C63.3865004,81.0018832 61.0762862,81.3195376 59.3725033,81.3195376 L59.3725033,84.7271035 L59.3725033,84.7271035 Z" id="Shape"></path>
                    </g>
                </g>
            </g>
        </g>
    </g>
</svg>