<?xml version="1.0" encoding="UTF-8"?>
<svg width="283px" height="283px" viewBox="0 0 283 283" version="1.1" xmlns="http://www.w3.org/2000/svg" xmlns:xlink="http://www.w3.org/1999/xlink">
    <!-- Generator: Sketch 47.1 (45422) - http://www.bohemiancoding.com/sketch -->
    <title>30days</title>
    <desc>Created with Sketch.</desc>
    <defs></defs>
    <g id="tarifa" stroke="none" stroke-width="1" fill="none" fill-rule="evenodd">
        <g id="Desktop-HD" transform="translate(-189.000000, -3389.000000)" fill-rule="nonzero">
            <g id="30days" transform="translate(189.000000, 3389.000000)">
                <g>
                    <path d="M231.627845,20.2143737 C226.574251,20.2143737 222.473621,16.0848659 222.473621,11.0601502 L222.473621,9.18310119 C222.473621,4.12950777 218.344114,0.0288776767 213.319398,0.0288776767 L211.442349,0.0288776767 C206.388755,0.0288776767 202.259248,4.15838545 202.259248,9.18310119 L202.259248,11.0601502 C202.259248,16.1137436 198.12974,20.2143737 193.105024,20.2143737 L90.040596,20.2143737 C84.9870026,20.2143737 80.8574948,16.0848659 80.8574948,11.0601502 L80.8574948,9.18310119 C80.8574948,4.12950777 76.727987,0.0288776767 71.7032713,0.0288776767 L69.8262223,0.0288776767 C64.7726289,-3.0149494e-15 60.6431211,4.12950777 60.6431211,9.18310119 L60.6431211,11.0601502 C60.6431211,16.1137436 56.5136133,20.2143737 51.4888976,20.2143737 L9.15422352,20.2143737 C4.12950777,20.2143737 0,24.3438815 0,29.3974749 L0,273.847008 C0,278.900602 4.12950777,283.001232 9.15422352,283.001232 L273.818131,283.001232 C278.871724,283.001232 282.972354,278.871724 282.972354,273.847008 L282.972354,29.3974749 C282.972354,24.3438815 278.842846,20.2432514 273.818131,20.2432514 L231.627845,20.2432514 L231.627845,20.2143737 Z M262.786858,253.632635 C262.786858,258.686228 258.65735,262.786858 253.632635,262.786858 L29.3685972,262.786858 C24.3438815,262.786858 20.2143737,258.65735 20.2143737,253.632635 L20.2143737,49.6118486 C20.2143737,44.5582552 24.3438815,40.4576251 29.3685972,40.4576251 L51.4600199,40.4576251 C56.5136133,40.4576251 60.6142434,44.5871328 60.6142434,49.6118486 L60.6142434,71.7032713 C60.6142434,76.7568647 64.7437512,80.8574948 69.7684669,80.8574948 L71.6455159,80.8574948 C76.6991093,80.8574948 80.7997394,76.727987 80.7997394,71.7032713 L80.7997394,49.6118486 C80.7997394,44.5582552 84.9292472,40.4576251 89.953963,40.4576251 L192.989513,40.4576251 C198.043107,40.4576251 202.143737,44.5871328 202.143737,49.6118486 L202.143737,71.7032713 C202.143737,76.7568647 206.273245,80.8574948 211.326838,80.8574948 L213.203887,80.8574948 C218.257481,80.8574948 222.386988,76.727987 222.386988,71.7032713 L222.386988,49.6118486 C222.386988,44.5582552 226.516496,40.4576251 231.541212,40.4576251 L253.546002,40.4576251 C258.599595,40.4576251 262.700225,44.5871328 262.700225,49.6118486 L262.786858,253.632635 L262.786858,253.632635 Z" id="Shape" fill="#000000"></path>
                    <g id="Group" transform="translate(75.370736, 101.360645)" fill="#E34649">
                        <path d="M0.0288776767,71.3278615 C1.06847404,71.5300052 2.02143737,71.6166382 2.91664535,71.6166382 C3.81185333,71.6166382 4.67818363,71.6166382 5.54451393,71.6166382 C8.57666998,71.6166382 11.0890279,71.2989838 13.1104652,70.6925526 C15.1319026,70.0861214 16.7490525,69.2486688 17.9330372,68.2090724 C19.117022,67.169476 19.9544746,66.014369 20.4742728,64.7437512 C20.994071,63.4731334 21.2539701,62.1158826 21.2539701,60.7008764 C21.2539701,58.7083168 20.5897835,56.8312678 19.2614104,55.0408518 C17.9330372,53.2504359 16.2870097,51.6044083 14.3233276,50.1027691 C12.330768,48.6011299 10.2226976,47.2438791 7.97023877,46.0598944 C5.71777999,44.8759096 3.66746494,43.8651909 1.87704899,43.0277383 C3.49419888,41.9881419 5.0824711,40.8907902 6.699621,39.7645608 C8.31677089,38.6383314 9.73177705,37.4832244 11.0023948,36.2992396 C12.2730126,35.1152549 13.2837313,33.9601478 14.0345509,32.8339184 C14.7853705,31.707689 15.1607803,30.6103373 15.1607803,29.570741 C15.1607803,27.866958 14.5254714,26.711851 13.2548536,26.1054197 C11.9842358,25.4989885 10.5981074,25.1813341 9.06759049,25.1813341 C6.699621,25.1813341 4.5915506,25.4123555 2.68562393,25.903276 L-1.13686838e-13,26.6252179 L-1.13686838e-13,2.85888999 L4.67818363,2.02143737 C6.29533352,1.81929363 8.28789322,1.64602757 10.6847404,1.44388384 C13.0815876,1.2417401 15.9404775,1.15510707 19.2325327,1.15510707 C28.5600223,1.15510707 35.4040316,3.26317747 39.7645608,7.45044059 C44.0962123,11.6377037 46.2620381,17.15334 46.2620381,23.939594 C46.2620381,26.3075635 45.8866283,28.4445116 45.1358087,30.3793159 C44.3849891,32.3141202 43.5186588,33.9890255 42.5945732,35.4040316 C42.1325303,36.2414843 41.5838545,37.0500592 40.9774233,37.8008788 C40.370992,38.5516984 39.7356832,39.302518 39.0714966,40.0533376 C40.284359,41.0063009 41.4394661,42.0170196 42.4790624,43.0854937 C43.5186588,44.1828454 44.5004998,45.3379524 45.4534631,46.5508149 C47.070613,48.7166406 48.5144969,51.3156315 49.84287,54.3477876 C51.1712431,57.3799436 51.8354297,60.7586318 51.8354297,64.5416075 C51.8354297,70.4037758 50.6225673,75.4284916 48.2257201,79.6157547 C45.8288729,83.8030178 42.5945732,87.268339 38.5228207,89.953963 C34.479946,92.6395869 29.7728847,94.6321466 24.4305145,95.9027644 C19.0881443,97.1733821 13.5436304,97.808691 7.79697271,97.808691 C6.84400938,97.808691 5.74665767,97.808691 4.47603989,97.808691 C3.20542212,97.808691 1.70378293,97.7509357 0.0288776767,97.6643026 L0.0288776767,71.3278615 L0.0288776767,71.3278615 Z M11.7820921,86.3153757 C15.449557,86.3153757 18.8860006,85.7955775 22.0336673,84.7559811 C25.1813341,83.7163848 27.9824687,82.2147456 30.3793159,80.2221859 C32.7761631,78.2296262 34.6820897,75.8616567 36.0393405,73.0893998 C37.3965913,70.3171428 38.0896556,67.1117207 38.0896556,63.5308888 C38.0896556,59.1992373 36.9923039,55.3296286 34.8264781,51.9220627 C32.6606524,48.5144969 28.9643097,44.9047873 23.7952056,41.0351786 C27.2894045,37.7431235 29.6284963,34.9419888 30.8124811,32.602897 C31.9964658,30.2926829 32.5740193,27.9247134 32.5740193,25.4701109 C32.5740193,21.5138692 31.1012578,18.4528354 28.1268571,16.344765 C25.1524564,14.2366946 21.6871352,13.1682206 17.7308935,13.1682206 C16.7779302,13.1682206 15.9404775,13.1970983 15.189658,13.2259759 C14.4388384,13.2837313 13.7746518,13.3414866 13.1970983,13.4281197 L11.3489269,13.7168964 L11.3489269,16.8356855 C11.9264805,16.8356855 12.4462787,16.7779302 12.9083215,16.6912971 C13.3703643,16.6046641 14.0345509,16.5180311 14.9008812,16.4891534 C15.7383338,16.431398 16.6912971,16.431398 17.7308935,16.431398 C21.0229486,16.431398 23.7085726,17.239973 25.7877653,18.8282452 C27.866958,20.4453951 28.9065544,22.7556092 28.9065544,25.7588876 C28.9065544,28.5022669 28.0113464,31.0723801 26.2209305,33.4692273 C24.4305145,35.8660745 21.8892789,38.4939431 18.5683461,41.3239554 C21.3117254,43.2010044 23.6796949,44.9914203 25.7011323,46.6952032 C27.7225696,48.3989862 29.3685972,50.1027691 30.639215,51.7776743 C31.9098328,53.4814573 32.8627961,55.2718732 33.4692273,57.1489222 C34.0756585,59.0259712 34.393313,61.1629193 34.393313,63.5020111 C34.393313,66.6208002 33.8157594,69.3641795 32.6317747,71.7899043 C31.4477899,74.1867515 29.83064,76.2370665 27.7514473,77.8830941 C25.6722546,79.5291217 23.2754074,80.7708618 20.5320281,81.6371921 C17.7886489,82.4746447 14.8720035,82.9078098 11.7532144,82.9078098 L10.9157618,82.9078098 L10.9157618,86.3153757 L11.7820921,86.3153757 L11.7820921,86.3153757 Z" id="Shape"></path>
                        <path d="M132.202004,49.5252156 C132.202004,65.5523261 128.852193,77.8253387 122.152572,86.3153757 C115.452951,94.8054126 106.125462,99.0504311 94.1412261,99.0504311 C82.1569902,99.0504311 72.8295007,94.8054126 66.1298797,86.3153757 C59.4302587,77.8253387 56.0804482,65.5523261 56.0804482,49.5252156 C56.0804482,33.498105 59.4302587,21.2250924 66.1298797,12.7350554 C72.8295007,4.24501848 82.1569902,0 94.1412261,0 C106.125462,0 115.452951,4.24501848 122.152572,12.7350554 C128.852193,21.2250924 132.202004,33.498105 132.202004,49.5252156 Z M69.2197911,49.5252156 C69.2197911,53.770234 69.6240786,58.0730079 70.4326535,62.4624147 C71.2412284,66.8518216 72.5696016,70.836941 74.4755282,74.4177729 C76.3525772,77.9986048 78.8938128,80.9152501 82.1281126,83.1965866 C85.3335347,85.4490454 89.3475317,86.6041525 94.1701038,86.6041525 C98.9926758,86.6041525 102.977795,85.4779231 106.212095,83.1965866 C109.417517,80.9441278 111.958753,77.9986048 113.864679,74.4177729 C115.741728,70.836941 117.098979,66.8518216 117.907554,62.4624147 C118.716129,58.0730079 119.120416,53.770234 119.120416,49.5252156 C119.120416,45.2801971 118.716129,40.9774233 117.907554,36.5880164 C117.098979,32.1986095 115.770606,28.2134901 113.864679,24.6326582 C111.98763,21.0518263 109.417517,18.135181 106.212095,15.8538445 C103.006673,13.6013857 98.9926758,12.4462787 94.1701038,12.4462787 C89.3475317,12.4462787 85.3624124,13.5725081 82.1281126,15.8538445 C78.9226905,18.1063033 76.3814549,21.0518263 74.4755282,24.6326582 C72.5984793,28.2134901 71.2412284,32.1986095 70.4326535,36.5880164 C69.6240786,40.9774233 69.2197911,45.2801971 69.2197911,49.5252156 Z M115.366318,49.5252156 C115.366318,52.7306377 115.077542,56.2825919 114.528866,60.2099559 C113.951312,64.13732 112.911716,67.7759072 111.352321,71.1834731 C109.792927,74.5910389 107.627101,77.4210513 104.854844,79.7312654 C102.082587,82.0414795 98.5017553,83.1965866 94.1701038,83.1965866 C89.7229415,83.1965866 86.1421096,82.0414795 83.427608,79.7312654 C80.6842287,77.4210513 78.5472807,74.5621613 76.9878861,71.1834731 C75.4284916,67.8047849 74.3600175,64.13732 73.8113417,60.2099559 C73.2337881,56.2825919 72.9738891,52.7306377 72.9738891,49.5252156 C72.9738891,46.3197934 73.2626658,42.7678392 73.8113417,38.8404752 C74.3888952,34.9131111 75.4284916,31.2745239 76.9878861,27.866958 C78.5472807,24.4593922 80.6842287,21.6293799 83.427608,19.3191657 C86.1709873,17.0089516 89.7518192,15.8538445 94.1701038,15.8538445 C98.5017553,15.8538445 102.082587,17.0089516 104.854844,19.3191657 C107.627101,21.6293799 109.792927,24.4882699 111.352321,27.866958 C112.911716,31.2745239 113.98019,34.9131111 114.528866,38.8404752 C115.077542,42.7678392 115.366318,46.3197934 115.366318,49.5252156 Z M103.179939,49.5252156 C103.179939,34.7109674 100.147783,27.3182822 94.1123484,27.3182822 C88.076914,27.3182822 85.0447579,34.7109674 85.0447579,49.5252156 C85.0447579,64.3394637 88.076914,71.732149 94.1123484,71.732149 C100.176661,71.7610266 103.179939,64.3394637 103.179939,49.5252156 Z" id="Shape"></path>
                    </g>
                </g>
            </g>
        </g>
    </g>
</svg>