<?xml version="1.0" encoding="UTF-8"?>
<svg width="283px" height="283px" viewBox="0 0 283 283" version="1.1" xmlns="http://www.w3.org/2000/svg" xmlns:xlink="http://www.w3.org/1999/xlink">
    <!-- Generator: Sketch 47.1 (45422) - http://www.bohemiancoding.com/sketch -->
    <title>7days</title>
    <desc>Created with Sketch.</desc>
    <defs></defs>
    <g id="tarifa" stroke="none" stroke-width="1" fill="none" fill-rule="evenodd">
        <g id="Desktop-HD" transform="translate(-974.000000, -1656.000000)" fill-rule="nonzero">
            <g id="7days" transform="translate(125.000000, 1656.000000)">
                <g transform="translate(849.000000, 0.000000)" id="Shape">
                    <path d="M231.627845,20.2143737 C226.574251,20.2143737 222.473621,16.0848659 222.473621,11.0601502 L222.473621,9.18310119 C222.473621,4.12950777 218.344114,0.0288776767 213.319398,0.0288776767 L211.442349,0.0288776767 C206.388755,0.0288776767 202.259248,4.15838545 202.259248,9.18310119 L202.259248,11.0601502 C202.259248,16.1137436 198.12974,20.2143737 193.105024,20.2143737 L90.040596,20.2143737 C84.9870026,20.2143737 80.8574948,16.0848659 80.8574948,11.0601502 L80.8574948,9.18310119 C80.8574948,4.12950777 76.727987,0.0288776767 71.7032713,0.0288776767 L69.8262223,0.0288776767 C64.7726289,-3.0149494e-15 60.6431211,4.12950777 60.6431211,9.18310119 L60.6431211,11.0601502 C60.6431211,16.1137436 56.5136133,20.2143737 51.4888976,20.2143737 L9.15422352,20.2143737 C4.12950777,20.2143737 0,24.3438815 0,29.3974749 L0,273.847008 C0,278.900602 4.12950777,283.001232 9.15422352,283.001232 L273.818131,283.001232 C278.871724,283.001232 282.972354,278.871724 282.972354,273.847008 L282.972354,29.3974749 C282.972354,24.3438815 278.842846,20.2432514 273.818131,20.2432514 L231.627845,20.2432514 L231.627845,20.2143737 Z M262.786858,253.632635 C262.786858,258.686228 258.65735,262.786858 253.632635,262.786858 L29.3685972,262.786858 C24.3438815,262.786858 20.2143737,258.65735 20.2143737,253.632635 L20.2143737,49.6118486 C20.2143737,44.5582552 24.3438815,40.4576251 29.3685972,40.4576251 L51.4600199,40.4576251 C56.5136133,40.4576251 60.6142434,44.5871328 60.6142434,49.6118486 L60.6142434,71.7032713 C60.6142434,76.7568647 64.7437512,80.8574948 69.7684669,80.8574948 L71.6455159,80.8574948 C76.6991093,80.8574948 80.7997394,76.727987 80.7997394,71.7032713 L80.7997394,49.6118486 C80.7997394,44.5582552 84.9292472,40.4576251 89.953963,40.4576251 L192.989513,40.4576251 C198.043107,40.4576251 202.143737,44.5871328 202.143737,49.6118486 L202.143737,71.7032713 C202.143737,76.7568647 206.273245,80.8574948 211.326838,80.8574948 L213.203887,80.8574948 C218.257481,80.8574948 222.386988,76.727987 222.386988,71.7032713 L222.386988,49.6118486 C222.386988,44.5582552 226.516496,40.4576251 231.541212,40.4576251 L253.546002,40.4576251 C258.599595,40.4576251 262.700225,44.5871328 262.700225,49.6118486 L262.786858,253.632635 L262.786858,253.632635 Z" fill="#000000"></path>
                    <path d="M134.194564,129.949545 L108.291288,129.949545 L118.773884,103.641982 L176.355972,103.641982 L139.161524,198.014229 L107.309447,198.014229 L134.194564,129.949545 Z M129.371992,186.69418 L157.672115,114.962031 L125.993303,114.962031 L124.722686,118.369597 L152.300867,118.369597 L125.41575,186.723058 L129.371992,186.723058 L129.371992,186.69418 Z" fill="#E34649"></path>
                </g>
            </g>
        </g>
    </g>
</svg>