<?xml version="1.0" encoding="UTF-8"?>
<svg width="283px" height="283px" viewBox="0 0 283 283" version="1.1" xmlns="http://www.w3.org/2000/svg" xmlns:xlink="http://www.w3.org/1999/xlink">
    <!-- Generator: Sketch 47.1 (45422) - http://www.bohemiancoding.com/sketch -->
    <title>90days</title>
    <desc>Created with Sketch.</desc>
    <defs></defs>
    <g id="tarifa" stroke="none" stroke-width="1" fill="none" fill-rule="evenodd">
        <g id="Desktop-HD" transform="translate(-718.000000, -4238.000000)" fill-rule="nonzero">
            <g id="90days" transform="translate(134.000000, 4238.000000)">
                <g transform="translate(584.000000, 0.000000)">
                    <path d="M231.627845,20.2143737 C226.574251,20.2143737 222.473621,16.0848659 222.473621,11.0601502 L222.473621,9.18310119 C222.473621,4.12950777 218.344114,0.0288776767 213.319398,0.0288776767 L211.442349,0.0288776767 C206.388755,0.0288776767 202.259248,4.15838545 202.259248,9.18310119 L202.259248,11.0601502 C202.259248,16.1137436 198.12974,20.2143737 193.105024,20.2143737 L90.040596,20.2143737 C84.9870026,20.2143737 80.8574948,16.0848659 80.8574948,11.0601502 L80.8574948,9.18310119 C80.8574948,4.12950777 76.727987,0.0288776767 71.7032713,0.0288776767 L69.8262223,0.0288776767 C64.7726289,-3.0149494e-15 60.6431211,4.12950777 60.6431211,9.18310119 L60.6431211,11.0601502 C60.6431211,16.1137436 56.5136133,20.2143737 51.4888976,20.2143737 L9.15422352,20.2143737 C4.12950777,20.2143737 0,24.3438815 0,29.3974749 L0,273.847008 C0,278.900602 4.12950777,283.001232 9.15422352,283.001232 L273.818131,283.001232 C278.871724,283.001232 282.972354,278.871724 282.972354,273.847008 L282.972354,29.3974749 C282.972354,24.3438815 278.842846,20.2432514 273.818131,20.2432514 L231.627845,20.2432514 L231.627845,20.2143737 Z M262.786858,253.632635 C262.786858,258.686228 258.65735,262.786858 253.632635,262.786858 L29.3685972,262.786858 C24.3438815,262.786858 20.2143737,258.65735 20.2143737,253.632635 L20.2143737,49.6118486 C20.2143737,44.5582552 24.3438815,40.4576251 29.3685972,40.4576251 L51.4600199,40.4576251 C56.5136133,40.4576251 60.6142434,44.5871328 60.6142434,49.6118486 L60.6142434,71.7032713 C60.6142434,76.7568647 64.7437512,80.8574948 69.7684669,80.8574948 L71.6455159,80.8574948 C76.6991093,80.8574948 80.7997394,76.727987 80.7997394,71.7032713 L80.7997394,49.6118486 C80.7997394,44.5582552 84.9292472,40.4576251 89.953963,40.4576251 L192.989513,40.4576251 C198.043107,40.4576251 202.143737,44.5871328 202.143737,49.6118486 L202.143737,71.7032713 C202.143737,76.7568647 206.273245,80.8574948 211.326838,80.8574948 L213.203887,80.8574948 C218.257481,80.8574948 222.386988,76.727987 222.386988,71.7032713 L222.386988,49.6118486 C222.386988,44.5582552 226.516496,40.4576251 231.541212,40.4576251 L253.546002,40.4576251 C258.599595,40.4576251 262.700225,44.5871328 262.700225,49.6118486 L262.786858,253.632635 L262.786858,253.632635 Z" id="Shape" fill="#000000"></path>
                    <g id="Group" transform="translate(64.108442, 101.071868)" fill="#E34649">
                        <path d="M72.8583783,37.3677137 C72.8583783,41.3239554 72.3963355,45.2224417 71.5011275,49.0342951 C70.6059196,52.8461484 69.4508125,56.542491 68.0358063,60.0655676 C66.6208002,63.5886441 65.0036503,66.9673323 63.2132343,70.1727544 C61.4228184,73.3781765 59.5746471,76.3525772 57.6975981,79.0959565 C55.5317723,82.3013786 53.1638028,85.39129 50.6225673,88.3656907 C48.0813317,91.3400914 45.4245855,94.1989814 42.7100839,96.913483 L8.46115928,96.913483 C9.50075564,95.8738867 10.5981074,94.7187796 11.7243367,93.4481618 C12.8505661,92.1775441 14.0345509,90.8780486 15.2474133,89.5496755 C17.239973,87.181706 19.3769211,84.4383267 21.6871352,81.2617823 C23.9973493,78.1141155 26.2498081,74.5332836 28.4156339,70.5770419 C24.1706154,69.7395893 20.3010067,68.2379501 16.8068078,66.1298797 C13.312609,64.0218093 10.3093306,61.451696 7.82585039,58.41954 C5.31349252,55.3873839 3.40756585,51.9509404 2.1080704,48.0813317 C0.779697271,44.211723 0.115510707,40.111093 0.115510707,35.7794414 C0.115510707,30.8702364 1.01071868,26.2498081 2.80113464,21.9181566 C4.5915506,17.5865051 7.07503079,13.7746518 10.2226976,10.540352 C13.3703643,7.27717453 17.1244623,4.73593898 21.4849915,2.88776767 C25.816643,1.03959636 30.552582,0.115510707 35.6350531,0.115510707 C40.9196679,0.115510707 45.8288729,1.03959636 50.3626682,2.88776767 C54.8964634,4.73593898 58.8238275,7.33492988 62.173638,10.6847404 C65.5234485,14.0345509 68.151317,17.9619149 70.028366,22.4957102 C71.905415,27.0583831 72.8583783,31.9964658 72.8583783,37.3677137 Z M36.4725057,13.312609 C33.2670836,13.312609 30.2349275,13.9190402 27.4049152,15.1607803 C24.5749029,16.3736427 22.1203004,18.0485479 20.0411076,20.1277407 C17.9619149,22.2069334 16.3158873,24.6615359 15.1030249,27.4915482 C13.8901625,30.3215605 13.2548536,33.3537166 13.2548536,36.5591387 C13.2548536,39.7645608 13.8612848,42.7967169 15.1030249,45.6267292 C16.3158873,48.4567415 17.9907926,50.911344 20.0411076,52.9905368 C22.1203004,55.0697295 24.5749029,56.7157571 27.4049152,57.9574972 C30.2349275,59.1703596 33.2670836,59.8056685 36.4725057,59.8056685 C39.9667046,59.8056685 43.2010044,59.1126042 46.1754051,57.7553534 C49.1498058,56.3981026 51.719919,54.492176 53.8857447,52.0375734 C52.3841056,56.6580017 50.3915459,61.0185309 47.9369433,65.119161 C45.4823408,69.2197911 43.0277383,72.7717453 40.5731358,75.8039014 C39.1581296,77.5943173 37.7142458,79.3269779 36.270362,80.9730055 C34.7976004,82.6190331 33.2670836,84.2073053 31.6788114,85.7089445 L36.2126066,85.7089445 C38.3784324,83.5431187 40.4287474,81.2617823 42.3635517,78.8360574 C44.2983561,76.4392103 46.1465274,73.8979747 47.965821,71.2701061 C49.3808272,69.1042804 50.7958333,66.7363109 52.2108395,64.1950753 C53.6258457,61.6538398 54.8675858,58.9970935 55.9649375,56.1959589 C57.0622892,53.4237019 57.9574972,50.5359342 58.6505614,47.5615335 C59.3725033,44.5871328 59.7190354,41.5838545 59.7190354,38.5805761 C59.7190354,34.6243344 59.1126042,31.0723801 57.8708641,27.9535911 C56.6580017,24.834802 54.9830965,22.2069334 52.8461484,20.0411076 C50.7092003,17.8752819 48.2834755,16.2292543 45.4823408,15.1030249 C42.6812062,13.8901625 39.6779278,13.312609 36.4725057,13.312609 Z M55.8783044,36.530261 C55.8783044,39.2736403 55.3873839,41.7859982 54.4055429,44.0962123 C53.4237019,46.4064265 52.0086958,48.4567415 50.2182798,50.2471575 C48.4278638,52.0375734 46.3486711,53.4237019 43.9807016,54.4344206 C41.6127321,55.4162616 39.1292519,55.9071821 36.4725057,55.9071821 C33.7291264,55.9071821 31.2167685,55.4162616 28.9065544,54.4344206 C26.5963403,53.4525796 24.5460252,52.0664511 22.7556092,50.2471575 C20.9651933,48.4567415 19.5790648,46.4064265 18.5683461,44.0962123 C17.5865051,41.7859982 17.0955846,39.2736403 17.0955846,36.530261 C17.0955846,33.9023925 17.5865051,31.3900346 18.5683461,29.0220651 C19.5501871,26.6540956 20.9363156,24.5749029 22.7556092,22.7844869 C24.5460252,20.994071 26.5963403,19.6079425 28.9065544,18.5972238 C31.2167685,17.6153828 33.7291264,17.1244623 36.4725057,17.1244623 C39.1003743,17.1244623 41.6127321,17.6153828 43.9807016,18.5972238 C46.3486711,19.5790648 48.4278638,20.994071 50.2182798,22.7844869 C52.0086958,24.5749029 53.3948242,26.6540956 54.4055429,29.0220651 C55.3585063,31.3900346 55.8783044,33.8735148 55.8783044,36.530261 Z M44.9625426,36.6746494 C44.9625426,34.2200469 44.12509,32.1697319 42.4790624,30.5237043 C40.8330349,28.8776767 38.8115975,28.0402241 36.4725057,28.0402241 C34.1045362,28.0402241 32.1119765,28.8776767 30.4659489,30.5237043 C28.8199214,32.1697319 27.9824687,34.1911692 27.9824687,36.530261 C27.9824687,38.8982305 28.8199214,40.8907902 30.4659489,42.5368178 C32.1119765,44.1828454 34.1334139,45.020298 36.4725057,45.020298 C38.7249645,45.020298 40.7175242,44.1828454 42.4213071,42.5368178 C44.12509,40.8907902 44.9625426,38.9271082 44.9625426,36.6746494 Z" id="Shape"></path>
                        <path d="M153.918017,49.8139923 C153.918017,65.8411029 150.568206,78.1141155 143.868585,86.6041525 C137.168964,95.0941894 127.841475,99.3392079 115.857239,99.3392079 C103.873003,99.3392079 94.5455136,95.0941894 87.8458926,86.6041525 C81.1462716,78.1141155 77.7964611,65.8411029 77.7964611,49.8139923 C77.7964611,33.7868818 81.1462716,21.5138692 87.8458926,13.0238322 C94.5455136,4.53379524 103.873003,0.288776767 115.857239,0.288776767 C127.841475,0.288776767 137.168964,4.53379524 143.868585,13.0238322 C150.568206,21.5138692 153.918017,33.7868818 153.918017,49.8139923 Z M90.9646816,49.8139923 C90.9646816,54.0590108 91.3689691,58.3617846 92.1775441,62.7511915 C92.986119,67.1405984 94.3144921,71.1257177 96.2204188,74.7065497 C98.0974678,78.2873816 100.667581,81.2040269 103.873003,83.4853634 C107.078425,85.7378222 111.092422,86.8929292 115.914994,86.8929292 C120.737566,86.8929292 124.722686,85.7666998 127.928108,83.4853634 C131.13353,81.2329046 133.674765,78.2873816 135.580692,74.7065497 C137.457741,71.1257177 138.814992,67.1405984 139.623567,62.7511915 C140.432142,58.3617846 140.836429,54.0590108 140.836429,49.8139923 C140.836429,45.5689739 140.432142,41.2662 139.623567,36.8767932 C138.814992,32.4873863 137.486619,28.5022669 135.580692,24.921435 C133.703643,21.3406031 131.13353,18.4239577 127.928108,16.1426213 C124.722686,13.8901625 120.708689,12.7350554 115.914994,12.7350554 C111.092422,12.7350554 107.107303,13.8612848 103.873003,16.1426213 C100.667581,18.3950801 98.1263455,21.3406031 96.2204188,24.921435 C94.3433698,28.5022669 92.986119,32.4873863 92.1775441,36.8767932 C91.3689691,41.2662 90.9646816,45.5689739 90.9646816,49.8139923 Z M137.082331,49.8139923 C137.082331,53.0194144 136.793555,56.5713687 136.244879,60.4987327 C135.667325,64.4260967 134.627729,68.064684 133.068334,71.4722499 C131.50894,74.8798157 129.343114,77.709828 126.570857,80.0200422 C123.7986,82.3302563 120.217768,83.4853634 115.886117,83.4853634 C111.438954,83.4853634 107.858123,82.3302563 105.143621,80.0200422 C102.400242,77.709828 100.263294,74.850938 98.703899,71.4722499 C97.1445045,68.064684 96.0760304,64.4260967 95.5273546,60.4987327 C94.949801,56.5713687 94.6899019,53.0194144 94.6899019,49.8139923 C94.6899019,46.6085702 94.9786787,43.056616 95.5273546,39.1292519 C96.1049081,35.2018879 97.1445045,31.5633006 98.703899,28.1557348 C100.263294,24.7481689 102.400242,21.9181566 105.143621,19.6079425 C107.887,17.2977284 111.467832,16.1426213 115.886117,16.1426213 C120.217768,16.1426213 123.7986,17.2977284 126.570857,19.6079425 C129.343114,21.9181566 131.50894,24.7770466 133.068334,28.1557348 C134.627729,31.5633006 135.696203,35.2018879 136.244879,39.1292519 C136.793555,43.056616 137.082331,46.6085702 137.082331,49.8139923 Z M124.924829,49.8139923 C124.924829,34.9997442 121.892673,27.6070589 115.857239,27.6070589 C109.821805,27.6070589 106.789648,34.9997442 106.789648,49.8139923 C106.789648,64.6282405 109.821805,72.0209257 115.857239,72.0209257 C121.892673,72.0498034 124.924829,64.6282405 124.924829,49.8139923 Z" id="Shape"></path>
                    </g>
                </g>
            </g>
        </g>
    </g>
</svg>