<?xml version="1.0" encoding="UTF-8"?>
<svg width="80px" height="75px" viewBox="0 0 80 75" version="1.1" xmlns="http://www.w3.org/2000/svg" xmlns:xlink="http://www.w3.org/1999/xlink">
    <!-- Generator: Sketch 47.1 (45422) - http://www.bohemiancoding.com/sketch -->
    <title>Group</title>
    <desc>Created with Sketch.</desc>
    <defs></defs>
    <g id="Page-1" stroke="none" stroke-width="1" fill="none" fill-rule="evenodd">
        <g id="Desktop-HD" transform="translate(-540.000000, -3101.000000)" fill-rule="nonzero" fill="#000000">
            <g id="actividad" transform="translate(122.000000, 2880.000000)">
                <g id="heart" transform="translate(299.000000, 156.000000)">
                    <g id="Group" transform="translate(159.073399, 102.505532) scale(-1, 1) rotate(-180.000000) translate(-159.073399, -102.505532) translate(119.073399, 65.005532)">
                        <path d="M17.6516228,74.7625005 C8.21660041,73.0955297 1.14910074,65.0607955 0.114991629,54.8085986 C-0.768241944,45.9738162 3.86567602,33.4715349 12.0007221,22.8205372 C16.118401,17.3857556 21.7521753,11.8849149 27.553136,7.58455422 C32.0206831,4.26692341 39.0049973,0 39.9722318,0 C40.6059091,0 45.0400189,2.53389355 48.7572661,5.0172234 C58.4255338,11.4852986 66.5605799,19.8030264 72.0116724,28.7878688 C73.561205,31.3551996 76.4286558,37.2556566 77.378764,39.8727355 C79.3792921,45.3735762 80.2462148,50.6917352 79.8286565,54.8085986 C78.7782365,65.1774182 71.6438623,73.195026 62.05878,74.7788114 C59.8421328,75.1286795 55.8239502,75.0120568 53.8902966,74.5284395 C49.6062468,73.4617087 46.0553706,71.4114324 42.7214289,68.110928 C41.6881353,67.0939453 40.6540262,66.0109036 40.4044699,65.7107836 L39.9714163,65.1439809 L39.5383627,65.7107836 C39.2879909,66.0109036 38.2546973,67.0939453 37.2377146,68.0946172 C33.9037729,71.3951216 30.2868377,73.4788351 26.0859733,74.5292551 C24.2526316,74.995746 19.6855882,75.1123687 17.6516228,74.7625005 Z M48.5908952,63.5104473 C48.7907033,63.3440765 48.991327,63.0602673 49.0410752,62.8938965 C49.0908233,62.7275256 50.7912315,56.1428277 52.8080704,48.2581535 C54.8420358,40.3734792 56.5921921,33.8727823 56.6916884,33.8059077 C56.9918084,33.6224104 59.7589474,33.6395368 63.7763145,33.8556559 L67.3100643,34.055464 L67.7268071,33.6721586 C68.2772989,33.155104 68.2772989,32.3550559 67.7431179,31.8551277 C67.4095606,31.5386969 67.0596925,31.4546959 65.2092244,31.3046359 C64.0258708,31.2214505 61.4414136,31.1211386 59.4751383,31.1211386 C55.5915203,31.0877013 54.9407166,31.2043241 54.4244776,32.0378095 C54.2744176,32.2384332 52.8080704,37.7555847 51.1410996,44.2570972 C49.4578179,50.7749206 48.0404033,56.2260131 47.9906552,56.392384 C47.9237806,56.542444 45.7903189,46.9076135 43.2401145,34.9721349 C40.6899101,23.0203454 38.5221956,13.1017058 38.4226993,12.9182085 C38.0222674,12.1344712 37.122723,11.9346631 36.4727348,12.4680285 C36.1391776,12.7347112 35.772183,14.401682 33.2219786,27.1372088 C31.6381932,35.0381939 30.321906,41.5560173 30.2713423,41.5894545 C30.2379051,41.6392027 29.3212342,39.5554891 28.2373769,36.9555366 C27.1535197,34.3718949 26.1202261,32.0883732 25.9204179,31.8877495 L25.5868607,31.5044441 L19.2019709,31.5044441 L12.8178966,31.5044441 L12.4843394,31.9383132 C12.0341594,32.5051159 12.0341594,33.005044 12.4843394,33.5718467 L12.8178966,34.0049003 L18.5022346,34.0383376 L24.1865725,34.0880857 L26.9031478,40.5732874 C28.4037478,44.1404745 29.720035,47.1579853 29.8366577,47.274608 C29.9532804,47.4075416 30.2868377,47.5412907 30.5698312,47.6081653 C30.9702631,47.6750399 31.1863821,47.6244762 31.5199394,47.3080453 C31.9203712,46.9410508 32.103053,46.158129 34.5537611,33.839345 C35.9874865,26.6380962 37.2042773,20.620201 37.2711519,20.4538301 C37.3380265,20.2703328 37.9708882,22.8711009 38.8712482,27.1217135 C46.3057424,61.9111666 46.5895515,63.2445802 46.972857,63.5447002 C47.4564742,63.9443165 48.1570261,63.92719 48.5908952,63.5104473 Z" id="Shape"></path>
                    </g>
                </g>
            </g>
        </g>
    </g>
</svg>