<?xml version="1.0" encoding="UTF-8"?>
<svg width="80px" height="66px" viewBox="0 0 80 66" version="1.1" xmlns="http://www.w3.org/2000/svg" xmlns:xlink="http://www.w3.org/1999/xlink">
    <!-- Generator: Sketch 47.1 (45422) - http://www.bohemiancoding.com/sketch -->
    <title>desempleado</title>
    <desc>Created with Sketch.</desc>
    <defs></defs>
    <g id="tarifa" stroke="none" stroke-width="1" fill="none" fill-rule="evenodd">
        <g id="Desktop-HD" transform="translate(-769.000000, -5785.000000)" fill-rule="nonzero" fill="#000000">
            <g id="menores" transform="translate(738.000000, 5477.000000)">
                <g id="desempleado" transform="translate(31.000000, 308.000000)">
                    <path d="M59.2652097,20.1519655 C58.9553049,20.1764316 59.208122,20.1438101 59.0939465,20.2090532 L58.9308388,20.3395394 C58.5720016,20.5923565 58.0745229,20.7309981 57.6341319,20.7309981 L50.5960315,20.7309981 C49.9843773,20.7309981 49.4624325,20.5842011 49.0383523,20.1927424 C48.0433948,19.2711835 48.0923272,18.0070983 49.1362169,17.1181609 L49.3808786,16.9550531 C49.7070941,16.743013 50.0414651,16.6614591 50.5389438,16.6614591 L57.5770442,16.6614591 C58.0989891,16.6614591 58.4822924,16.743013 58.8900618,17.036607 C59.0939465,17.183404 58.9960819,17.2160255 59.2652097,17.2404917 C59.2896759,17.5748626 59.4283175,17.476998 59.6240468,17.8684566 C59.8523977,18.3251584 59.8605531,19.2222512 59.4364729,19.7931284 C59.314142,19.9725469 59.2896759,19.9154592 59.2652097,20.1519655 L59.2652097,20.1519655 Z M15.9927172,20.6168226 C14.5002811,20.6168226 15.2016445,20.6739104 13.9701808,20.372161 C13.888627,20.3558502 13.888627,20.3558502 13.7989177,20.3150733 C13.7907623,20.3069179 13.7744515,20.2987625 13.7662961,20.2906071 L13.6602761,20.2172086 C13.3422159,20.0296346 13.0649327,19.93177 12.7060956,19.5403113 C12.6245417,19.4506021 12.6408525,19.4669128 12.5756094,19.3853589 C11.8742459,18.5371985 11.6948274,17.6074842 11.6948274,16.4820406 C11.6948274,16.0334942 11.8742459,15.609414 12.2820154,15.4952385 C12.8692034,15.3321308 13.4645467,15.2587323 14.0843563,15.2587323 C14.2963964,15.2587323 14.5247473,15.4463062 14.6389227,15.5767924 C15.2342661,16.2455343 14.5492134,17.4117549 15.6501909,17.4117549 C16.3841759,17.4117549 16.2863112,15.9193187 16.2863112,15.2016445 L16.2863112,9.38685239 C16.2863112,8.86490752 16.1232035,7.96781476 16.7511684,7.69868693 C17.3383564,7.44586988 18.3822461,7.43771449 18.9612787,7.6497546 C19.4098251,7.81286238 19.6626422,8.20432103 19.6626422,8.63655663 C19.6626422,10.2268574 19.7605068,15.6583463 19.5647775,16.8571884 C19.4179805,17.729815 19.344582,18.504577 18.7900156,19.2304066 L18.1049629,19.8828377 C18.0968075,19.890993 18.0804967,19.8991484 18.0723414,19.9073038 L17.2812687,20.3395394 C17.0284516,20.4292487 16.2781558,20.6168226 15.9927172,20.6168226 L15.9927172,20.6168226 Z M27.5081261,20.6168226 C26.0890885,20.6168226 26.5784118,20.6902211 25.2735496,20.4047825 C24.7760709,20.2987625 24.1888829,20.0541008 23.7566473,19.7686622 C23.666938,19.7115745 23.6180057,19.6871083 23.5446072,19.6300206 L22.5496498,18.8226371 C22.2560558,18.5290431 22.0277049,18.170206 21.799354,17.8276797 C21.5710031,17.476998 21.5710031,17.3872887 21.4323615,17.0936947 C20.7065319,15.5849478 20.8043966,14.4431934 20.8777951,12.820271 L21.3671184,10.9853086 C21.4405169,10.846667 21.4976046,10.7488023 21.5710031,10.6020053 C21.9379956,9.88433111 21.7504217,10.1860805 22.2805219,9.50918322 C22.6230483,9.07694762 23.0634392,8.64471202 23.5282964,8.36742881 L23.9279104,8.13092253 C23.9360658,8.12276715 23.9523766,8.12276715 23.9686874,8.11461176 C23.9768428,8.10645637 23.9931536,8.09830098 24.0094643,8.09830098 L24.7189832,7.76393004 C24.8902463,7.69868693 25.0288879,7.71499771 25.1919957,7.65790999 C25.6894744,7.48664683 25.3143265,7.48664683 26.1787977,7.47849144 C26.5784118,7.47849144 26.8393842,7.33169444 27.1982213,7.38062677 C27.3368629,7.39693755 27.5733692,7.42955911 27.7120108,7.45402527 C28.2502665,7.52742377 28.0871587,7.38062677 28.7559006,7.62528844 C29.2533793,7.81286238 29.3512439,7.75577465 29.9302765,8.0819902 C30.4929984,8.40005036 30.590863,8.42451653 31.0801863,8.84859674 C31.6592189,9.33792006 31.8957252,9.72937872 32.2790285,10.3328775 L32.5807779,10.9037547 C32.6541764,11.0587071 32.6623317,11.1728825 32.7357302,11.3278349 C32.9803919,11.8090028 33.086412,12.7876495 33.1434997,13.3095944 C33.2168982,14.0109578 33.1761212,15.3402861 32.9640811,15.9600957 C32.7601964,16.5309729 32.9885473,16.2618451 32.499224,17.2975794 C32.4013593,17.5096195 32.4258255,17.4851534 32.3034946,17.6808827 L32.0832991,18.0478752 C31.912036,18.2925369 31.765239,18.4964216 31.577665,18.7003063 C31.5695097,18.7166171 31.5368881,18.7492386 31.5205773,18.757394 C31.5124219,18.7655494 31.5042666,18.7818602 31.4961112,18.7900156 L30.925234,19.3282712 C30.9170786,19.3364266 30.9007678,19.3527374 30.8926124,19.3608928 C30.6071738,19.6218652 29.7916349,20.0622562 29.4491086,20.184587 L28.5601712,20.4618702 C28.2013341,20.5352687 27.9729832,20.6168226 27.5081261,20.6168226 L27.5081261,20.6168226 Z M43.2724924,13.407459 C43.2724924,13.7581407 44.1288083,14.3371733 44.3163822,15.2179553 C44.4713346,15.9519403 44.4713346,16.4820406 44.3571591,17.2241809 C44.3163822,17.5014642 44.291916,17.5259303 44.2022068,17.7135043 L44.0880313,18.064186 C44.039099,18.2028276 44.0635651,18.1294291 44.039099,18.1865168 L43.9493897,18.3333138 C43.9412343,18.3414692 43.9330789,18.35778 43.9249235,18.3659354 C43.8596804,18.4801108 43.8841466,18.4393339 43.8107481,18.5453539 C43.598708,18.8634141 43.5171541,19.0346772 43.2235601,19.2956497 L42.9136553,19.5729329 C42.5140413,19.8746823 41.6414147,20.2090532 41.1602468,20.3150733 C40.4425726,20.4700256 35.6390486,20.5108026 35.0518606,20.4129379 C34.6848681,20.3476948 34.2607879,20.0867224 34.2607879,19.638176 L34.2607879,8.28587492 C34.2607879,8.0085917 34.8642867,7.52742377 35.3046777,7.52742377 L39.2029535,7.52742377 L41.0542267,7.76393004 C41.2173345,7.82101776 41.2091791,7.84548393 41.4456854,7.89441626 C41.7066578,7.95150398 41.6332593,7.91072704 41.8452994,8.01674709 C42.0084072,8.09830098 42.0491841,8.10645637 42.1878257,8.20432103 C42.6853045,8.54684736 43.2072493,8.96277218 43.4600664,9.54996017 C43.4763772,9.59073711 43.5008433,9.66413561 43.5253095,9.72122333 C43.5742418,9.83539877 43.5742418,9.81093261 43.6231742,9.90879727 C43.998322,10.6509376 43.9738559,11.727449 43.704728,12.4859001 L43.3948233,13.1627974 C43.3132694,13.3259051 43.2724924,13.2280405 43.2724924,13.407459 L43.2724924,13.407459 Z M57.4057811,11.3686118 C56.166162,11.3686118 50.66943,11.433855 49.7968034,11.2952134 C49.5684525,11.2625918 49.2830139,11.0342409 49.09544,10.8955993 C48.8507783,10.7161808 48.801846,10.6101607 48.6305828,10.3736544 C48.2799011,9.89248649 48.2391242,9.07694762 48.5000966,8.57131352 C48.7121367,8.17169948 49.1035954,7.69053154 49.535831,7.51111299 L50.3676806,7.2909175 L57.8706382,7.2909175 C58.0663675,7.2909175 58.0908337,7.35616061 58.2702523,7.41324833 C58.8248187,7.58451149 58.3518062,7.33984983 58.8003525,7.64159921 C59.1836558,7.90257165 59.1591896,7.78024082 59.4854052,8.29403031 C59.5995806,8.47344886 59.6158914,8.44082731 59.6811345,8.62024586 C59.7382222,8.79150902 59.7871546,9.32160928 59.7626884,9.51733861 C59.7300668,9.76200027 59.7463776,9.94957421 59.6403576,10.1534589 C59.3304528,10.7406469 59.2407435,10.7895793 58.7187986,11.099484 C58.2947184,11.3686118 58.1316107,11.3686118 57.4057811,11.3686118 L57.4057811,11.3686118 Z M6.91576962,1.48428074 L6.91576962,31.0964971 C6.91576962,31.724462 7.80470699,30.63164 7.93519321,30.4929984 L8.93830602,29.5795948 C9.01170451,29.5143517 9.08510301,29.4735748 9.17481229,29.4083317 C9.89248649,28.8537652 10.6020053,28.2991988 11.3849226,27.8343416 L13.888627,26.562101 L15.2179553,26.0890885 C15.3647523,26.0483115 15.3892185,26.0075346 15.5523263,25.9586022 C15.6665017,25.9178253 15.8377649,25.9015145 15.9356295,25.8770483 C16.3841759,25.7873391 16.8490331,25.5916097 17.2975794,25.4937451 C17.5585519,25.4366574 17.876612,25.4692789 18.0968075,25.4203466 C18.651374,25.281705 19.1325419,25.2327726 19.7115745,25.2327726 C20.2335194,25.2327726 20.8370181,25.0615095 21.358963,25.1430634 C22.0032387,25.240928 23.1368377,25.1512188 23.8708227,25.3061711 C24.1399506,25.3632589 24.2704368,25.428502 24.5966523,25.4529681 L26.7822965,25.9993792 C27.0351135,26.1053992 27.1900659,26.1135546 27.4591938,26.1951085 C27.8995847,26.3337501 27.7935647,26.2114193 28.2502665,26.2114193 L57.2182071,26.2114193 C57.6259766,26.2114193 58.3762723,26.2195747 58.6943325,26.4234594 C58.7432648,26.4560809 58.8003525,26.4968579 58.8655956,26.5376348 C59.1836558,26.7415195 59.3712297,26.8964719 59.5751145,27.2308429 C60.048127,28.0219156 59.9828839,28.8537652 59.3875405,29.5388179 L58.3518062,30.191249 C58.0419014,30.3054244 57.7238412,30.2809582 57.3976257,30.2809582 L34.7827328,30.2809582 C34.5706927,30.2809582 34.4565173,30.3298906 34.3178757,30.3951337 C34.3423418,30.6642615 35.0192391,31.3085372 35.2312792,31.5124219 C35.7532241,32.0343668 36.2425474,32.7194195 36.6584722,33.3473844 C36.6666276,33.3555398 36.674783,33.3718506 36.6829384,33.380006 C36.6910938,33.3881613 36.6992492,33.4044721 36.7074045,33.4126275 L37.5718757,34.8153544 C38.3303269,36.2833243 37.7920712,35.9734196 41.0623821,35.9734196 L57.5851996,35.9734196 C58.4986031,35.9734196 59.1184127,36.1691489 59.5180267,36.8378908 L59.7789992,37.3843018 C59.9665731,37.8899359 59.9584177,38.101976 59.7626884,38.6157655 C59.6240468,38.9664472 59.4690944,39.1866427 59.1999666,39.4476151 C59.1184127,39.529169 59.1184127,39.5373244 59.0042372,39.6025675 C58.9389941,39.6433445 58.9553049,39.6270337 58.8900618,39.6678106 C58.8329741,39.7004322 58.8166633,39.716743 58.7840418,39.7412091 C58.2294753,40.1082016 57.1121871,39.9858708 56.2395605,39.9858708 L40.8258758,39.9858708 C39.7493645,39.9858708 39.6025675,39.7493645 39.6025675,40.6872342 C39.6025675,40.997139 39.7412091,41.1276252 39.7738307,41.3885977 C39.8064522,41.6414147 39.8146076,41.983941 39.8309184,42.1959811 C39.9940262,44.1777406 39.9206277,44.4305576 39.7738307,46.493871 C39.7493645,46.8282419 39.6351891,46.9097958 39.6025675,47.2523221 C39.569946,47.5377607 39.5454798,47.7253347 39.4720813,47.9944625 C39.3905274,48.2635903 39.382372,48.508252 39.3089735,48.761069 C39.1703319,49.2096154 38.7788733,49.935445 39.4394598,49.935445 L57.8217059,49.935445 C59.0123926,49.935445 60.9452198,50.0333097 61.9646433,49.8946681 C62.6170744,49.8049588 68.0648741,49.8783573 69.280027,49.8783573 C69.8916812,49.8783573 70.4380922,49.9436004 70.0058566,49.3237909 L69.5002225,48.5490289 C69.4920671,48.5408735 69.4839117,48.5245628 69.4757563,48.5164074 L69.4023578,48.4185427 C69.1576962,48.0189287 69.0353654,47.5866931 68.839636,47.1789236 C68.4971097,46.4612494 68.3910896,45.6864875 68.1953603,44.919881 C68.105651,44.5610439 67.999631,43.1990939 67.999631,42.6689937 C68.0567187,32.4339809 67.999631,22.1908127 67.999631,11.9557998 C67.999631,11.2136595 68.0811849,1.61476696 67.958854,1.23146369 C67.852834,0.888937368 67.706037,0.644275707 67.4532199,0.399614046 C67.4450646,0.391458658 67.4042876,0.350681714 67.3961322,0.342526325 C67.1922475,0.179418551 66.8823427,0.0326215548 66.6050595,0.0326215548 L8.31849647,0.0326215548 C7.63344382,0.0244661661 6.91576962,0.807383481 6.91576962,1.48428074 Z M21.5791585,55.6360617 L20.5923565,55.6360617 C20.0704116,55.6360617 19.8175945,55.4974201 19.3690482,55.4647986 C19.1651634,55.4484878 18.944968,55.432177 18.7492386,55.3914001 L16.5717498,54.7145028 C16.4657298,54.6655705 16.5228175,54.6655705 16.3515543,54.5840166 C15.9519403,54.404598 15.5278601,54.2251795 15.1527122,53.9805178 C13.8967823,53.1486682 13.1627974,52.6267233 12.1678399,51.4360365 L11.1157948,49.9843773 C11.0750179,49.9191342 11.0913286,49.935445 11.0505517,49.8702019 C10.69987,49.3156355 10.2023913,48.2962119 10.0392835,47.6845577 C9.90064188,47.1789236 9.62335867,46.4857156 9.5988925,45.9719261 C9.58258172,45.7027983 9.56627095,45.5967782 9.525494,45.3439612 C9.34607545,44.1288083 9.50102784,43.1909386 9.59073711,42.0165626 L9.73753411,41.4049084 C9.85170955,41.1276252 9.819088,40.9237405 9.94957421,40.5730588 C9.99850655,40.4425726 9.97404038,40.4588833 10.0148173,40.2876202 C10.0882158,39.96956 10.4959853,39.088778 10.6509376,38.7707179 L11.393078,37.4821665 C11.4012334,37.4740111 11.4093888,37.4577003 11.4175442,37.4495449 L12.0781307,36.5932291 C12.3635693,36.2833243 12.5348324,35.9897303 12.8284264,35.7206025 L13.6928976,34.953996 C13.7092084,34.9458406 13.74183,34.9050636 13.7499853,34.8969083 C14.2800856,34.4075849 15.1853338,33.8530185 15.8214541,33.5349583 L17.3220456,32.8825272 C17.7624366,32.6867979 18.9205018,32.4421363 19.3772036,32.3850485 C20.4292487,32.2545623 21.5710031,32.3198054 22.6148929,32.3687378 C23.0389731,32.3850485 23.4059656,32.5318455 23.8463566,32.5889332 C24.2704368,32.646021 24.1236398,32.6704871 24.3764568,32.7601964 C24.4987877,32.8009734 24.5884969,32.8009734 24.6700508,32.8172841 C24.9799556,32.8825272 24.947334,32.9477704 25.2164619,33.0293242 C25.3387927,33.0619458 25.3469481,33.0701012 25.4692789,33.1271889 C26.1706423,33.4697152 26.6762764,33.6246676 27.3531737,34.0976802 L29.0087176,35.3454546 C29.0739607,35.4188531 29.0984269,35.4514747 29.1799808,35.5248732 L30.0607628,36.4545875 C30.4359106,36.8705123 30.8518355,37.4169234 31.1046525,37.9144021 C31.178051,38.0611991 31.1617402,38.0367329 31.2514495,38.1753745 L31.7489282,39.129555 C31.7897052,39.2274197 31.7978605,39.2845074 31.8467929,39.382372 L32.0506776,39.8798507 C32.1240761,40.0674247 32.1159207,39.9777154 32.1811638,40.157134 L32.458447,41.3315099 C32.5073794,41.731124 32.5889332,41.6006378 32.6297102,41.8534548 C32.7112641,42.3264674 32.646021,42.7750137 32.7194195,43.2235601 C32.8743719,44.1614298 32.7438856,44.919881 32.6378656,45.8577507 C32.605244,46.1676554 32.5155347,46.2084324 32.4747578,46.453094 L31.8060159,48.6305828 C31.6999959,48.8426229 31.6755297,48.8507783 31.5695097,49.09544 L31.3493142,49.5766079 C31.2432941,49.8620465 31.0230986,50.0903974 30.8599908,50.3676806 L30.8110585,50.4410791 C30.3462014,51.1669087 29.7590134,51.8356506 29.1310484,52.4228386 L27.8914294,53.4504175 C27.883274,53.4585729 27.8669632,53.4667283 27.8588078,53.4748837 C27.296086,53.8826531 26.7578303,54.111004 26.1543316,54.445375 C25.974913,54.5432396 25.8852037,54.5840166 25.6894744,54.6818812 L24.6618954,55.0488737 C24.400923,55.1141168 24.3519907,55.1875153 24.0828628,55.2282923 C23.6343165,55.2935354 23.4222763,55.4403324 22.8677099,55.4729539 C22.3783866,55.4892647 22.1174142,55.6360617 21.5791585,55.6360617 L21.5791585,55.6360617 Z M4.1837144,44.0635651 L4.34682218,46.453094 C4.4039099,46.6896003 4.4039099,46.5917356 4.45284223,46.7548434 C4.51808534,46.9995051 4.50992995,47.1626129 4.54255151,47.4235853 L4.93401016,48.8915553 C4.9829425,49.1362169 4.91769939,48.9894199 5.02371944,49.2096154 L5.33362421,50.0088435 C5.50488737,50.4655453 5.66799515,50.9385578 5.90450142,51.3544826 L6.4264463,52.3412847 C7.19305283,53.5972145 7.18489745,53.0752697 6.0594538,54.3148887 C5.1949826,55.2690692 4.24895751,56.1498512 3.36002014,57.0795655 L3.30293242,57.1366532 C3.26215548,57.1774302 3.26215548,57.1774302 3.22137854,57.2263625 L1.68816546,58.7758864 C1.67185468,58.7921971 1.58214541,58.8819064 1.57399002,58.8900618 L0.872626591,59.6403576 C0.424080212,60.1623024 0.260972438,60.6190042 0.138641608,61.2959015 C-1.45716772e-15,62.0543526 0.114175442,62.3153251 0.383303269,63.0411547 C0.521944877,63.4163025 0.774761927,63.7669843 1.02757898,64.0198013 C1.65554391,64.6477662 1.8757394,64.6966986 2.58525822,64.9087387 C3.34370937,65.1289342 3.84118808,65.0800018 4.59148384,64.8271848 L5.70877209,64.0850444 L6.80974957,62.9759115 C6.81790495,62.9677562 6.82606034,62.9514454 6.83421573,62.94329 L7.24198517,62.5355206 C7.30722828,62.4702774 7.2909175,62.4865882 7.364316,62.4213451 C7.42955911,62.356102 7.41324833,62.3724128 7.47849144,62.2990143 C7.53557916,62.2337712 7.53557916,62.2337712 7.59266688,62.1766835 L11.6377397,58.0745229 C12.0047322,58.0745229 12.1107522,58.2294753 12.3717247,58.3844277 L12.8039603,58.6454001 C12.9099803,58.7106433 12.8039603,58.6617109 12.9099803,58.7106433 L16.5799052,60.2193902 L17.7542812,60.4966734 C18.064186,60.5292949 18.0886521,60.5129842 18.35778,60.5863827 C18.9694341,60.7494904 20.9838151,60.8636659 21.5546923,60.7658012 C21.9706172,60.6924027 22.5496498,60.741335 22.932953,60.6924027 C23.1776147,60.6597812 23.3488778,60.7005581 23.5772287,60.6434704 L25.3632589,60.2764779 C25.5997651,60.2520117 26.1543316,60.0318162 26.4071486,59.9257962 C27.1411336,59.6240468 27.6141461,59.5995806 28.4459958,59.1184127 C28.5520158,59.061325 28.4459958,59.1102573 28.5520158,59.0531696 L28.8945422,58.873751 C29.0087176,58.8085079 29.0087176,58.8166633 29.1310484,58.7595756 L29.7427026,58.4415154 C29.750858,58.43336 29.7671688,58.4252047 29.7753241,58.4170493 L33.045635,55.8644126 L33.8937954,54.9102321 C34.7011789,53.9723624 35.1741915,53.2954652 35.8184672,52.2352646 L36.5442968,50.8080716 C36.8378908,50.2453498 37.1641063,49.3237909 37.3027479,48.7202921 C37.3516802,48.5245628 37.4495449,48.4430089 37.4984772,48.214658 L37.9225575,45.7517306 C37.9470236,44.3408484 37.9878006,43.5008433 37.9225575,42.024718 C37.9062467,41.6577255 37.7676051,41.6006378 37.7431389,41.2091791 C37.7186727,40.8421866 37.6860512,40.6219911 37.6044973,40.303931 L37.3924572,39.5210136 C37.3109033,39.3497505 37.3190587,39.3252843 37.2701264,39.1213996 C37.221194,38.9093595 37.1885725,38.9256703 37.1314848,38.7380963 C37.0907078,38.6076101 37.0825524,38.4771239 37.0499309,38.3547931 C36.9357554,37.9470236 36.3648782,36.674783 36.1120612,36.2099258 L35.5738055,35.2394346 C35.4351639,35.0110837 35.2965223,34.8398205 35.1578807,34.6114696 L33.6165122,32.605244 C32.1730084,31.0883417 31.031254,30.1994044 29.2370685,29.1310484 L25.7710283,27.7038554 C25.4937451,27.6304569 25.3469481,27.5325923 24.9962664,27.4918153 C24.6374293,27.4510384 24.4906323,27.3287075 24.1317952,27.3042414 C23.4548979,27.2634644 23.0308177,27.0677351 22.3294543,27.0677351 C21.2610983,27.0677351 20.1274993,27.0269582 19.0754542,27.1329782 C18.7003063,27.1655998 18.6839955,27.2879306 18.2028276,27.3042414 C17.7461258,27.3205521 17.7869028,27.4510384 17.3872887,27.4755045 C16.9387423,27.5081261 16.5880606,27.6549231 16.1721358,27.7690985 C15.9519403,27.8261862 16.049805,27.8506524 15.7888325,27.9158955 L14.6389227,28.3399757 C14.4758149,28.4052188 14.4268826,28.4052188 14.2637748,28.4867727 L11.2136595,30.2646475 C11.2055041,30.2728029 11.1891933,30.2809582 11.1810379,30.2891136 L8.62840125,32.5644671 C8.59577969,32.605244 8.56315814,32.6378656 8.5142258,32.6867979 L7.41324833,34.0895248 C7.05441123,34.5543819 6.74450646,35.0029283 6.47537863,35.5330286 C6.41829091,35.647204 6.45906785,35.5901163 6.39382474,35.687981 L5.59459665,37.2701264 C5.51304276,37.514788 5.54566432,37.3843018 5.44779965,37.5881865 C5.38255654,37.7186727 5.36624577,37.8328482 5.30100266,37.9633344 L4.77090239,39.4720813 C4.63226078,39.8880061 4.58332845,40.7280112 4.45284223,41.1928683 C4.34682218,41.5761716 4.28973446,41.4946177 4.28973446,42.0818057 C4.30604523,42.8565676 4.1837144,43.3622017 4.1837144,44.0635651 Z M69.9161473,14.1006671 L69.9161473,43.5334649 C69.9161473,43.998322 70.0629443,44.1777406 70.0874105,44.5284223 C70.1037213,44.7812394 70.0710997,44.8627932 70.1363428,45.0585226 L70.8377063,47.0321266 L72.17519,49.0138861 C72.1833454,49.0220415 72.1915008,49.0383523 72.1996562,49.0465076 L72.3627639,49.2340816 C73.1783028,50.0903974 72.9662627,49.9109788 74.230348,49.7723372 L76.2855059,49.3319463 C76.7748292,49.1199061 76.6769646,49.2667031 77.3293957,48.8670891 L77.8839621,48.4348535 C78.2101776,48.1331041 78.6097917,47.7498008 78.8218318,47.3420314 C78.8626087,47.2686329 78.8544533,47.2523221 78.8952303,47.187079 C79.2540674,46.5346479 79.1725135,46.6080464 79.4253306,45.9719261 L79.7841677,44.291916 L79.9717416,41.5109285 C79.9554308,38.2569284 80.0696063,18.904191 79.9309647,17.876612 C79.8575662,17.3138902 80.0369847,17.4606872 79.8004784,16.8979654 C79.5802829,16.3678651 79.5802829,16.0987373 79.0501827,15.4381508 C78.7158117,15.022226 78.3325085,14.6796997 77.8676513,14.4105718 C77.3864834,14.1332886 76.7503631,13.8804716 76.1876412,13.8804716 L70.1363428,13.8804716 C70.014012,13.8723162 69.9161473,13.9701808 69.9161473,14.1006671 Z M24.1970383,14.1006671 C24.1970383,14.435038 24.2459706,14.5002811 24.254126,14.8020305 L24.4580107,15.7072786 C24.6374293,16.2455343 25.3143265,17.0529178 25.9259807,17.2649579 C26.855695,17.5748626 27.2634644,17.5667073 28.1850233,17.2323363 C28.9760961,16.9387423 29.6774595,15.7399002 29.7182364,14.9243613 C29.750858,14.288241 29.856878,13.301439 29.6366825,12.7387172 C29.4001763,12.1352184 29.457264,11.8579352 28.7722113,11.2136595 L27.7283216,10.6264715 C27.5815246,10.6020053 27.5162815,10.6183161 27.3613291,10.5856945 C26.6191887,10.4388975 27.1982213,10.5041406 26.3908378,10.6101607 C25.9178253,10.6754038 25.6242313,10.846667 25.281705,11.1321056 C24.8820909,11.4583211 25.1022864,11.2299702 24.800537,11.6377397 C24.7434493,11.7192936 24.7271385,11.7192936 24.694517,11.7682259 L24.4335445,12.3227923 C24.3030583,12.8773588 24.1970383,13.4808575 24.1970383,14.1006671 Z M37.6289635,15.6175694 C37.6289635,16.4331082 37.4821665,17.2486471 37.8654697,17.2486471 C38.4934347,17.2486471 40.1245124,17.3383564 40.5730588,17.1018501 C41.0216052,16.8653438 41.0134498,16.6533037 41.0134498,16.2618451 C41.0134498,15.1527122 39.0072242,15.3892185 37.9878006,15.3892185 C37.8002266,15.3810631 37.6289635,15.4381508 37.6289635,15.6175694 Z M37.6289635,11.0179301 C37.6289635,11.5317196 37.5881865,11.6948274 37.6860512,12.127063 C38.248773,12.2575492 39.5944121,12.2493938 40.1652894,12.0536645 C40.4181064,11.9721106 40.4588833,11.9557998 40.5241265,11.7111382 C40.7932543,10.69987 39.7575199,10.8548224 39.423149,10.8548224 C39.1458658,10.846667 37.6289635,10.5938499 37.6289635,11.0179301 Z" id="Shape"></path>
                </g>
            </g>
        </g>
    </g>
</svg>