<?xml version="1.0" encoding="UTF-8"?>
<svg width="32px" height="32px" viewBox="0 0 32 32" version="1.1" xmlns="http://www.w3.org/2000/svg" xmlns:xlink="http://www.w3.org/1999/xlink">
    <!-- Generator: Sketch 47.1 (45422) - http://www.bohemiancoding.com/sketch -->
    <title>e0244831358c330d6d9433fe38288789</title>
    <desc>Created with Sketch.</desc>
    <defs></defs>
    <g id="Page-1" stroke="none" stroke-width="1" fill="none" fill-rule="evenodd">
        <g id="Desktop-HD" transform="translate(-554.000000, -4487.000000)" fill-rule="nonzero" fill="#000000">
            <g id="contact" transform="translate(129.000000, 4375.000000)">
                <g id="fb" transform="translate(335.000000, 112.000000)">
                    <g id="e0244831358c330d6d9433fe38288789" transform="translate(90.000000, 0.000000)">
                        <path d="M22.1942857,19.6328064 C23.4122449,19.6328064 24.6236735,19.6197678 25.8318367,19.6425853 C26.1942857,19.6491046 26.3738776,19.5350172 26.4163265,19.1731973 C26.5893878,17.8074085 26.7755102,16.4416197 26.9518367,15.0758309 C26.964898,14.9780417 26.9289796,14.8769929 26.9093878,14.7107513 C25.3257143,14.7107513 23.764898,14.7107513 22.2236735,14.7107513 C22.2236735,13.3286643 22.1453061,12.0150298 22.2530612,10.7144338 C22.324898,9.8343312 23.1085714,9.39427992 24.3102041,9.36494317 C25.2473469,9.33886606 26.1877551,9.35842389 27.1738776,9.35842389 C27.1738776,7.86550918 27.1738776,6.43452761 27.1738776,4.88945867 C26.4065306,4.8340448 25.6228571,4.71343816 24.842449,4.72973635 C23.6571429,4.75581346 22.4326531,4.71995743 21.2963265,4.99702676 C18.7689796,5.61635819 17.1657143,7.79379712 17.1069388,10.4438837 C17.077551,11.8227111 17.1004082,13.2015384 17.1004082,14.6618567 C16.8489796,14.6781549 16.6302041,14.7009724 16.4114286,14.7009724 C15.4285714,14.704232 14.442449,14.714011 13.4563265,14.6977128 C13.0710204,14.6911935 12.8718367,14.7955019 12.875102,15.2159954 C12.8881633,16.5133317 12.8881633,17.8106681 12.875102,19.1047448 C12.8718367,19.5154594 13.0481633,19.6425853 13.4465306,19.636066 C14.635102,19.6165082 15.8269388,19.6295467 17.0514286,19.6295467 C17.0514286,23.7627691 17.0514286,27.8275391 17.0514286,31.9444633 C11.3730612,31.9444633 5.71102041,31.9444633 0,31.9444633 C0,21.3115205 0,10.6785777 0,0 C10.6514286,0 21.2995918,0 32,0 C32,10.6264235 32,21.2593663 32,31.9477229 C31.8334694,31.9607615 31.6538776,31.9868386 31.4742857,31.9900982 C28.5616327,31.9933579 25.6522449,31.9868386 22.7395918,31.9998772 C22.3412245,32.0031368 22.1159184,31.9444633 22.1159184,31.468556 C22.1289796,27.6221818 22.122449,23.772548 22.1257143,19.9261739 C22.1355102,19.8479426 22.164898,19.7697112 22.1942857,19.6328064 Z" id="Shape"></path>
                    </g>
                </g>
            </g>
        </g>
    </g>
</svg>