<?xml version="1.0" encoding="UTF-8"?>
<svg width="32px" height="27px" viewBox="0 0 32 27" version="1.1" xmlns="http://www.w3.org/2000/svg" xmlns:xlink="http://www.w3.org/1999/xlink">
    <!-- Generator: Sketch 47.1 (45422) - http://www.bohemiancoding.com/sketch -->
    <title>0da30e0e32860764823d3f0c1146f62a</title>
    <desc>Created with Sketch.</desc>
    <defs></defs>
    <g id="Page-1" stroke="none" stroke-width="1" fill="none" fill-rule="evenodd">
        <g id="Desktop-HD" transform="translate(-260.000000, -4490.000000)" fill-rule="nonzero" fill="#000000">
            <g id="contact" transform="translate(129.000000, 4375.000000)">
                <g id="direction" transform="translate(29.000000, 115.000000)">
                    <g id="0da30e0e32860764823d3f0c1146f62a" transform="translate(102.000832, 0.000000)">
                        <path d="M25.4122869,26.7900009 L6.58688086,26.7900009 C6.23778335,26.7900009 5.95333354,26.5116947 5.95333354,26.170137 L5.95333354,9.674167 L7.22042817,9.674167 L7.22042817,25.5502731 L24.7787396,25.5502731 L24.7787396,9.87657154 L26.0458342,9.87657154 L26.0458342,26.1669744 C26.0458342,26.5116947 25.7613844,26.7900009 25.4122869,26.7900009 Z" id="Shape"></path>
                        <path d="M31.1404146,14.8833338 L15.898362,1.46482679 L0.865283618,14.8801624 L0,13.9667778 L15.4640876,0.164522391 C15.705714,-0.0543093242 16.0812144,-0.0543093242 16.326106,0.161350917 L31.9991678,13.9636063 L31.1404146,14.8833338 Z" id="Shape"></path>
                        <path d="M20.0925007,26.0458342 L18.8387184,26.0458342 L18.8387184,16.1479871 L12.4162827,16.1479871 L12.4162827,26.0458342 L11.1625004,26.0458342 L11.1625004,15.5156605 C11.1625004,15.1672356 11.4439617,14.8833338 11.7893915,14.8833338 L19.4656095,14.8833338 C19.8110394,14.8833338 20.0925007,15.1672356 20.0925007,15.5156605 L20.0925007,26.0458342 L20.0925007,26.0458342 Z" id="Shape"></path>
                    </g>
                </g>
            </g>
        </g>
    </g>
</svg>