<?xml version="1.0" encoding="UTF-8"?>
<svg width="80px" height="104px" viewBox="0 0 80 104" version="1.1" xmlns="http://www.w3.org/2000/svg" xmlns:xlink="http://www.w3.org/1999/xlink">
    <!-- Generator: Sketch 47.1 (45422) - http://www.bohemiancoding.com/sketch -->
    <title>joven</title>
    <desc>Created with Sketch.</desc>
    <defs></defs>
    <g id="tarifa" stroke="none" stroke-width="1" fill="none" fill-rule="evenodd">
        <g id="Desktop-HD" transform="translate(-769.000000, -5525.000000)" fill-rule="nonzero" fill="#000000">
            <g id="menores" transform="translate(738.000000, 5477.000000)">
                <g id="joven" transform="translate(31.000000, 48.000000)">
                    <path d="M9.2182555,50.7369828 C12.1114995,55.8169917 16.3563319,60.444743 21.2875179,63.8629684 C27.2007173,67.9543213 33.7369145,70.1209503 40.2097559,70.1209503 C46.6825974,70.1209503 53.2187946,67.9543213 59.131994,63.8629684 C64.06318,60.444743 68.3080124,55.8275093 71.2012564,50.7475004 C74.7597353,50.5476657 79.9971405,48.6544947 79.9971405,39.1676045 C79.9971405,33.088422 77.864165,28.9444811 73.9466704,27.3142505 C72.0987956,20.2674473 67.9173189,13.6939369 62.0569159,8.65599852 C55.5629558,3.07114407 47.6223738,0 39.692351,0 C31.7940061,0 24.0223726,3.0921793 17.7923946,8.69806898 C12.280448,13.6729017 8.28903845,20.2464121 6.46228221,27.3458033 C2.43919475,29.0706925 0,33.4565386 0,39.1570869 C0,42.5858299 0.813064918,45.3519631 2.41807618,47.3713455 C4.04420602,49.4117631 6.37780793,50.5581833 9.2182555,50.7369828 Z M8.67973198,31.4371562 C8.88035839,32.8359992 9.33440763,36.6854469 10.8338261,37.8318672 C11.0872489,38.0422195 11.4145867,38.1684309 11.7736024,38.1684309 C12.5549894,38.1684309 13.1885465,37.5584091 13.2307837,36.7906231 C13.2307837,36.7906231 13.2307837,36.7906231 13.2307837,36.7906231 C13.2835801,34.5608884 12.945683,30.5747117 14.7513207,29.0812101 C17.8029539,27.5035676 21.8260414,24.7900225 25.8385695,21.1614447 C28.63678,18.6266991 30.4212991,19.3418971 32.237496,20.7722929 C42.7967807,29.0917277 56.2493093,30.1329718 63.2184372,31.5949205 C68.3608088,32.6677174 65.4464463,39.2412278 67.8962003,38.8625936 C70.3459543,38.4734418 71.1590193,31.3319801 71.1590193,31.3319801 L71.4335607,31.3214624 C74.675261,32.1208013 75.3510553,36.0228371 75.3510553,39.1570869 C75.3510553,46.1407843 72.0882363,46.1407843 70.5254622,46.1407843 C70.3881915,46.1407843 70.2192429,46.1302667 70.0186165,46.1092315 L68.476961,45.9725025 L67.7694889,47.3503102 C63.250115,56.0904497 52.6908304,65.493199 40.2097559,65.493199 C27.7286815,65.493199 17.1693968,56.0904497 12.650023,47.3503102 L11.9425509,45.9935377 L10.3058618,46.1197491 C10.1791504,46.1302667 10.052439,46.1407843 9.96796471,46.1407843 C6.42004507,46.1407843 4.62496668,43.7953558 4.62496668,39.1570869 C4.63552596,37.6320324 4.93118593,32.6677174 8.67973198,31.4371562 Z" id="Shape"></path>
                    <g id="Group" transform="translate(22.715237, 35.554285)">
                        <path d="M5.19328112,10.8528357 C8.00891547,10.8528357 10.303136,8.44962938 10.303136,5.46482524 C10.303136,2.49099464 8.00891547,0.0768148126 5.19328112,0.0768148126 C2.3672185,0.0768148126 0.0729979275,2.49099464 0.0729979275,5.46482524 C0.0729979275,8.42768229 2.3672185,10.8528357 5.19328112,10.8528357 Z M6.23610866,3.36887821 C7.68563893,3.36887821 8.85360577,4.60888875 8.85360577,6.12323792 C8.85360577,7.64856062 7.68563893,8.88857117 6.23610866,8.88857117 C4.78657839,8.88857117 3.61861155,7.64856062 3.61861155,6.12323792 C3.61861155,4.60888875 4.78657839,3.36887821 6.23610866,3.36887821 Z" id="Shape"></path>
                        <path d="M28.3961938,10.8528357 C31.2222564,10.8528357 33.516477,8.43865584 33.516477,5.46482524 C33.516477,2.49099464 31.2222564,0.0768148126 28.3961938,0.0768148126 C25.5701312,0.0768148126 23.2863389,2.49099464 23.2863389,5.46482524 C23.2863389,8.42768229 25.5701312,10.8528357 28.3961938,10.8528357 Z M27.342938,3.36887821 C28.7924682,3.36887821 29.9604351,4.60888875 29.9604351,6.12323792 C29.9604351,7.64856062 28.7924682,8.88857117 27.342938,8.88857117 C25.8934077,8.88857117 24.7254409,7.64856062 24.7254409,6.12323792 C24.7254409,4.60888875 25.8934077,3.36887821 27.342938,3.36887821 Z" id="Shape"></path>
                    </g>
                    <path d="M61.2437896,76.0466644 C59.6136133,76.0466644 56.7660976,76.0466644 53.9503386,76.0466644 C53.939753,76.0466644 53.9291675,76.0466644 53.9291675,76.0466644 C53.9079963,76.0466644 53.8762397,76.0466644 53.8550685,76.0466644 C53.1987638,76.0466644 52.6377291,76.442456 52.4048468,77.0048967 C52.3836757,77.0465589 52.3625046,77.0778056 52.351919,77.1090523 C50.6370582,81.6502399 46.8791844,91.2117312 43.7882008,96.3778528 L43.2800939,88.5140991 C43.2800939,88.5140991 46.8791844,81.0044747 47.2708501,80.3170472 C48.1917938,78.7026342 47.3661201,77.3277793 45.6300883,77.3277793 C44.7726579,77.3277793 42.6132036,77.3277793 40.4537493,77.3277793 C40.3267226,77.3277793 40.1996959,77.3277793 40.0832547,77.3277793 C40.0832547,77.3277793 40.0726692,77.3277793 40.0726692,77.3277793 C40.0726692,77.3277793 40.0726692,77.3277793 40.0726692,77.3277793 C40.0620836,77.3277793 40.0514981,77.3277793 40.0409125,77.3277793 L40.0409125,77.3277793 C40.0409125,77.3277793 40.0303269,77.3277793 40.0303269,77.3277793 C40.0197414,77.3277793 40.0091558,77.3277793 39.9985703,77.3277793 C39.9879847,77.3277793 39.9668136,77.3277793 39.956228,77.3277793 C39.9456425,77.3277793 39.9350569,77.3277793 39.9244713,77.3277793 C39.9244713,77.3277793 39.9244713,77.3277793 39.9138858,77.3277793 C39.9138858,77.3277793 39.9138858,77.3277793 39.9138858,77.3277793 C39.9033002,77.3277793 39.8927146,77.3277793 39.8821291,77.3277793 L39.8821291,77.3277793 C39.8821291,77.3277793 39.8821291,77.3277793 39.8715435,77.3277793 C39.7445168,77.3277793 39.6174901,77.3277793 39.5010489,77.3277793 C37.3415946,77.3277793 35.1821404,77.3277793 34.32471,77.3277793 C32.5886781,77.3277793 31.7524189,78.7026342 32.6839482,80.3170472 C33.0756139,81.0044747 36.6747044,88.5140991 36.6747044,88.5140991 L36.1665975,96.3778528 C33.0756139,91.2117312 29.3283256,81.6502399 27.6028793,77.1090523 C27.5922937,77.0778056 27.5711226,77.0361434 27.5499515,77.0048967 C27.3170691,76.442456 26.7560344,76.0466644 26.0997297,76.0466644 C26.0785586,76.0466644 26.0468019,76.0466644 26.0256308,76.0466644 C26.0150452,76.0466644 26.0044597,76.0466644 26.0044597,76.0466644 C23.1887007,76.0466644 20.3305994,76.0466644 18.7110087,76.0466644 C11.55517,76.0466644 1.97523804,82.4626542 1.97523804,90.6284594 C1.97523804,98.7942645 1.97523804,103.699997 1.97523804,103.699997 L39.4057789,103.699997 L39.8927146,103.699997 L39.9033002,103.699997 L39.9033002,103.699997 L39.9350569,103.699997 L39.9350569,103.699997 L39.9456425,103.699997 L39.9773991,103.699997 L40.0197414,103.699997 L40.0514981,103.699997 L40.0620836,103.699997 L40.0620836,103.699997 L40.0938403,103.699997 L40.0938403,103.699997 L40.1044259,103.699997 L40.5913616,103.699997 L78.0219025,103.699997 C78.0219025,103.699997 78.0219025,98.7942645 78.0219025,90.6284594 C77.9795602,82.4522386 68.3890427,76.0466644 61.2437896,76.0466644 Z" id="Shape"></path>
                </g>
            </g>
        </g>
    </g>
</svg>