<?xml version="1.0" encoding="UTF-8"?>
<svg width="80px" height="26px" viewBox="0 0 80 26" version="1.1" xmlns="http://www.w3.org/2000/svg" xmlns:xlink="http://www.w3.org/1999/xlink">
    <!-- Generator: Sketch 47.1 (45422) - http://www.bohemiancoding.com/sketch -->
    <title>jubulado</title>
    <desc>Created with Sketch.</desc>
    <defs></defs>
    <g id="tarifa" stroke="none" stroke-width="1" fill="none" fill-rule="evenodd">
        <g id="Desktop-HD" transform="translate(-769.000000, -5690.000000)" fill-rule="nonzero" fill="#000000">
            <g id="menores" transform="translate(738.000000, 5477.000000)">
                <g id="jubulado" transform="translate(31.000000, 213.000000)">
                    <path d="M39.8648562,7.01961022 C39.8648562,7.01961022 48.157791,-5.71363622 60.9644985,4.04035704 C73.7630437,13.7943503 70.9470372,14.5779347 79.9092838,5.3381687 C79.9092838,5.3381687 81.3132058,14.0555451 72.3509593,20.2997333 C63.3887127,26.5439214 56.3446155,25.2461098 52.630752,23.6871033 C48.9168884,22.1280969 41.9462522,17.70411 39.8566938,15.1003243 C39.8566938,15.1003243 31.6290577,26.2745643 20.487467,24.9767526 C9.3458764,23.6871033 4.48112327,17.70411 3.19963629,15.7533113 C1.9181493,13.7943503 0.383629861,10.4069803 0,5.08513624 C0,5.08513624 7.17469463,17.802058 14.9860516,7.01961022 C14.9860516,7.01961022 26.6581942,-3.25677265 33.8084018,1.18353893 C33.8084018,1.18353893 37.9793562,3.4853181 39.8648562,7.01961022 L39.8648562,7.01961022 Z" id="Shape"></path>
                </g>
            </g>
        </g>
    </g>
</svg>