<?xml version="1.0" encoding="UTF-8"?>
<svg width="26px" height="24px" viewBox="0 0 26 24" version="1.1" xmlns="http://www.w3.org/2000/svg" xmlns:xlink="http://www.w3.org/1999/xlink">
    <!-- Generator: Sketch 47.1 (45422) - http://www.bohemiancoding.com/sketch -->
    <title>c7b01860659ee8849616bc511dc2bc56</title>
    <desc>Created with Sketch.</desc>
    <defs></defs>
    <g id="Page-1" stroke="none" stroke-width="1" fill="none" fill-rule="evenodd">
        <g id="Desktop-HD" transform="translate(-1158.000000, -4492.000000)" fill-rule="nonzero" fill="#000000">
            <g id="contact" transform="translate(129.000000, 4375.000000)">
                <g id="email" transform="translate(929.000000, 117.000000)">
                    <g id="c7b01860659ee8849616bc511dc2bc56" transform="translate(100.000000, 0.000000)">
                        <g id="Group" transform="translate(13.000000, 12.000000) scale(-1, 1) rotate(-180.000000) translate(-13.000000, -12.000000) ">
                            <path d="M1.2437551,23.9620295 C1.0052449,23.886743 0.56855102,23.5738134 0.431653061,23.3731588 C0.36055102,23.2667758 0.243816327,23.0412439 0.167673469,22.8657938 C0.0408571429,22.5653028 0.0358163265,22.4900164 0.0153877551,21.5129296 L0.000265306119,20.4795417 L6.50265306,16.2775777 L13,12.0687398 L19.4973469,16.2775777 L26,20.4798691 L25.9848776,21.513257 L25.9694898,22.5466448 L25.7967755,22.9410802 C25.603898,23.3793781 25.4465714,23.5672668 25.0608163,23.8180033 L24.8018776,23.987234 L13.1013469,23.9996727 C6.66502041,23.9996727 1.32997959,23.987234 1.2437551,23.9620295 Z" id="Shape"></path>
                            <path d="M0.0151224489,8.72438625 L0.0302448979,1.4405892 L0.167408163,1.12111293 C0.370367347,0.645171849 0.522653061,0.45106383 0.878163265,0.21309329 L1.19785714,0.000327332238 L13,0.000327332238 L24.8021429,0.000327332238 L25.0610816,0.169558101 C25.4468367,0.419967267 25.6041633,0.607855974 25.7970408,1.04648118 L25.9697551,1.44091653 L25.9851429,8.72471358 L25.9952245,16.01473 L25.4770816,15.6700491 C24.3755306,14.9436989 15.1266939,8.98756137 14.5886531,8.64942717 C13.8728571,8.2111293 13.3398571,7.98559738 12.9997347,7.98559738 C12.6596122,7.98559738 12.1266122,8.2111293 11.4108163,8.64942717 C10.8730408,8.98756137 1.62446939,14.9436989 0.522918367,15.6700491 L0.00504081626,16.0144026 L0.0151224489,8.72438625 Z" id="Shape"></path>
                        </g>
                    </g>
                </g>
            </g>
        </g>
    </g>
</svg>