<?xml version="1.0" encoding="utf-8"?>
<!-- Generator: Adobe Illustrator 21.1.0, SVG Export Plug-In . SVG Version: 6.00 Build 0)  -->
<svg version="1.1" xmlns="http://www.w3.org/2000/svg" xmlns:xlink="http://www.w3.org/1999/xlink" x="0px" y="0px"
	 viewBox="0 0 100 100" style="enable-background:new 0 0 100 100;" xml:space="preserve">
<style type="text/css">
	.st0{fill:none;stroke:#000000;stroke-width:4;stroke-miterlimit:10;}
</style>
<g id="mancuerna">
	<path d="M72,51H29c-0.6,0-1-0.4-1-1l0,0c0-0.6,0.4-1,1-1h43c0.6,0,1,0.4,1,1l0,0C73,50.6,72.6,51,72,51z"/>
	<path d="M31.3,53h-0.7c-0.4,0-0.7-0.3-0.7-0.7v-4.7c0-0.4,0.3-0.7,0.7-0.7h0.7c0.4,0,0.7,0.3,0.7,0.7v4.7C32,52.7,31.7,53,31.3,53z
		"/>
	<path d="M34.3,55h-0.7c-0.4,0-0.7-0.3-0.7-0.7v-8.7c0-0.4,0.3-0.7,0.7-0.7h0.7c0.4,0,0.7,0.3,0.7,0.7v8.7C35,54.7,34.7,55,34.3,55z
		"/>
	<path d="M37.3,57h-0.7c-0.4,0-0.7-0.3-0.7-0.7V43.7c0-0.4,0.3-0.7,0.7-0.7h0.7c0.4,0,0.7,0.3,0.7,0.7v12.7C38,56.7,37.7,57,37.3,57
		z"/>
	<path d="M40.3,59h-0.7c-0.4,0-0.7-0.3-0.7-0.7V41.7c0-0.4,0.3-0.7,0.7-0.7h0.7c0.4,0,0.7,0.3,0.7,0.7v16.7C41,58.7,40.7,59,40.3,59
		z"/>
	<path d="M61.3,59h-0.7c-0.4,0-0.7-0.3-0.7-0.7V41.7c0-0.4,0.3-0.7,0.7-0.7h0.7c0.4,0,0.7,0.3,0.7,0.7v16.7C62,58.7,61.7,59,61.3,59
		z"/>
	<path d="M64.3,57h-0.7c-0.4,0-0.7-0.3-0.7-0.7V43.7c0-0.4,0.3-0.7,0.7-0.7h0.7c0.4,0,0.7,0.3,0.7,0.7v12.7C65,56.7,64.7,57,64.3,57
		z"/>
	<path d="M67.3,55h-0.7c-0.4,0-0.7-0.3-0.7-0.7v-8.7c0-0.4,0.3-0.7,0.7-0.7h0.7c0.4,0,0.7,0.3,0.7,0.7v8.7C68,54.7,67.7,55,67.3,55z
		"/>
	<path d="M70.3,53h-0.7c-0.4,0-0.7-0.3-0.7-0.7v-4.7c0-0.4,0.3-0.7,0.7-0.7h0.7c0.4,0,0.7,0.3,0.7,0.7v4.7C71,52.7,70.7,53,70.3,53z
		"/>
	<path d="M56.6,52H45.4c-0.8,0-1.4-0.6-1.4-1.4v-1.2c0-0.8,0.6-1.4,1.4-1.4h11.2c0.8,0,1.4,0.6,1.4,1.4v1.2C58,51.4,57.4,52,56.6,52
		z"/>
</g>
<g id="circle">
	<circle class="st0" cx="51" cy="50" r="31"/>
</g>
</svg>
