<?xml version="1.0" encoding="UTF-8"?>
<svg width="32px" height="32px" viewBox="0 0 32 32" version="1.1" xmlns="http://www.w3.org/2000/svg" xmlns:xlink="http://www.w3.org/1999/xlink">
    <!-- Generator: Sketch 47.1 (45422) - http://www.bohemiancoding.com/sketch -->
    <title>7f8667d58b8067f33fbe59aa5af4ac85</title>
    <desc>Created with Sketch.</desc>
    <defs></defs>
    <g id="Page-1" stroke="none" stroke-width="1" fill="none" fill-rule="evenodd">
        <g id="Desktop-HD" transform="translate(-858.000000, -4492.000000)" fill-rule="nonzero" fill="#000000">
            <g id="contact" transform="translate(129.000000, 4375.000000)">
                <g id="telefone" transform="translate(638.000000, 117.000000)">
                    <g id="7f8667d58b8067f33fbe59aa5af4ac85" transform="translate(91.000000, 0.000000)">
                        <path d="M23.3007039,31.2900009 C21.2563815,31.2900009 18.6177033,29.9453705 16.7627909,28.8162669 C14.2808659,27.3043619 11.6029994,25.2134293 9.22884222,22.9294877 L9.21904515,22.9198372 L8.46467057,22.176752 C6.14929579,19.8316907 4.03312815,17.1906821 2.50478485,14.7394658 C1.36179307,12.9123125 0,10.3034721 0,8.28652641 C0,6.12482387 1.5642659,3.83444855 2.2369982,2.94660644 C2.76277442,2.2549903 4.59482696,0 6.15256148,0 C6.79263688,0 7.48169764,0.414969684 8.38629399,1.34141363 C9.18638824,2.16170254 9.95709127,3.18143425 10.4600077,3.8923513 C11.1360056,4.84774662 11.7630183,5.84496059 12.2234807,6.70385133 C12.9680582,8.09673407 13.0529662,8.69184563 13.0529662,9.0199612 C13.0529662,9.68262596 12.7035372,10.2552198 12.0112108,10.7248754 C11.5572798,11.0336901 11.0119094,11.2685179 10.4828675,11.4936952 C10.1269072,11.6448857 9.55867699,11.889364 9.3431414,12.0598554 C9.41825229,12.3751037 9.74808706,13.1407067 10.6428863,14.433868 C11.4756375,15.6401752 12.5533155,16.9494207 13.5232256,17.9337674 C14.522527,18.8923795 15.8451318,19.9571467 17.0697658,20.7774356 C18.3793079,21.6588441 19.1532766,21.9869596 19.47658,22.0609465 C19.6496616,21.8454196 19.8945884,21.285693 20.0480759,20.9350597 C20.2766742,20.413935 20.511804,19.8735094 20.8253103,19.4263715 C21.3021011,18.7444058 21.8833941,18.4002062 22.5528607,18.4002062 C22.8859612,18.4002062 23.490114,18.4838435 24.9008924,19.2204951 C25.7728318,19.6740666 26.785196,20.2916959 27.7485748,20.9607943 C28.4670268,21.4594013 29.5022507,22.2153538 30.3317362,23.0066913 C31.2722552,23.9009671 31.6902636,24.5829328 31.6902636,25.2134293 C31.6902636,26.7510689 29.4075457,28.5621382 28.7054222,29.0800461 C27.8106229,29.7459277 25.4887167,31.2900009 23.3007039,31.2900009 L23.3007039,31.2900009 L23.3007039,31.2900009 L23.3007039,31.2900009 Z M21.6776556,14.9839441 C21.3510865,14.9839441 21.06044,14.7523331 21.0016576,14.4242175 C20.8351073,13.4849063 20.2832056,12.6678342 19.4504544,12.1241918 C18.6046405,11.5741157 17.5726822,11.3682393 16.5439896,11.5483811 C16.1717009,11.6127175 15.8157406,11.3682393 15.7504268,10.998305 C15.6851129,10.6315876 15.9333054,10.2777375 16.3055942,10.2134011 C17.6837157,9.9721397 19.0683686,10.2487862 20.2080947,10.9918714 C21.3576179,11.7413903 22.1217895,12.8769275 22.3569193,14.1861729 C22.4222331,14.5561071 22.1740406,14.9067404 21.8017518,14.9710768 C21.7560322,14.9807273 21.7168439,14.9839441 21.6776556,14.9839441 L21.6776556,14.9839441 L21.6776556,14.9839441 Z M25.8054888,13.2372112 C25.4789197,13.2372112 25.1882732,13.0056003 25.1294908,12.6774847 C24.8029217,10.8535482 23.7350408,9.2708731 22.1250552,8.22219002 C20.5020069,7.16385649 18.5197326,6.77140454 16.5407239,7.1156042 C16.1684352,7.17994058 15.8124749,6.93546232 15.7471611,6.5655281 C15.6818473,6.19881071 15.9300398,5.84496059 16.3023285,5.78062421 C18.6242347,5.37530498 20.9624693,5.84174377 22.8794298,7.09308646 C24.8094531,8.35086279 26.0896039,10.252003 26.4782211,12.4458737 C26.5435349,12.8158079 26.2953424,13.1664412 25.9230536,13.2307776 C25.8838653,13.2339944 25.844677,13.2372112 25.8054888,13.2372112 L25.8054888,13.2372112 L25.8054888,13.2372112 Z M31.3179748,12.7321706 C30.9914058,12.7321706 30.7007593,12.5005596 30.6419768,12.1724441 C30.0868094,9.06177985 28.2678196,6.35965167 25.518108,4.57110016 C22.7585992,2.76968138 19.391672,2.10058298 16.0345419,2.68604408 C15.6622531,2.75038046 15.3062928,2.5059022 15.240979,2.13596799 C15.1756652,1.76925059 15.4238577,1.41540047 15.7961464,1.35106409 C19.4961741,0.707700237 23.2190616,1.44756867 26.2724825,3.43877979 C29.3389662,5.43642454 31.3702259,8.45380101 31.9907071,11.9376163 C32.056021,12.3043337 31.8078285,12.6581838 31.4355397,12.7225202 C31.3963514,12.7289538 31.3571631,12.7321706 31.3179748,12.7321706 L31.3179748,12.7321706 L31.3179748,12.7321706 Z" id="Shape"></path>
                    </g>
                </g>
            </g>
        </g>
    </g>
</svg>