<?xml version="1.0" encoding="UTF-8"?>
<svg width="80px" height="61px" viewBox="0 0 80 61" version="1.1" xmlns="http://www.w3.org/2000/svg" xmlns:xlink="http://www.w3.org/1999/xlink">
    <!-- Generator: Sketch 47.1 (45422) - http://www.bohemiancoding.com/sketch -->
    <title>Group</title>
    <desc>Created with Sketch.</desc>
    <defs></defs>
    <g id="Page-1" stroke="none" stroke-width="1" fill="none" fill-rule="evenodd">
        <g id="Desktop-HD" transform="translate(-240.000000, -3108.000000)" fill-rule="nonzero" fill="#000000">
            <g id="actividad" transform="translate(122.000000, 2880.000000)">
                <g id="muscle" transform="translate(1.000000, 156.000000)">
                    <g id="Group" transform="translate(157.073324, 102.391116) scale(-1, 1) rotate(-180.000000) translate(-157.073324, -102.391116) translate(117.073324, 71.891116)">
                        <path d="M5.44223517,60.6018957 C2.83028817,59.7790428 0.916544097,57.7577575 0.25418823,55.1816576 C0.00407352932,54.2154164 -0.0138499997,51.9081694 0.0219970583,35.0567933 L0.0757676454,16.0407438 L0.558888223,14.3233438 C2.56224994,6.9885469 8.42976157,1.56830879 15.7107879,0.298182346 C17.9471555,-0.0953205861 37.4104786,-0.0953205861 40.2366932,0.298182346 C45.9787401,1.10311174 51.1847106,3.78675286 54.1901605,7.50751454 L54.8166694,8.25867334 L56.0688723,7.99063511 C57.9117369,7.59713218 61.0059898,7.45374395 62.8309309,7.70467336 C70.9348102,8.79637921 77.6430983,14.466732 79.4501159,21.7836054 C79.987007,23.9662024 79.987007,27.2396906 79.4321923,29.2788993 C77.6602071,35.9334168 72.0428101,40.6375285 64.5654397,41.7292344 C63.6350456,41.8546991 62.2223457,41.9084696 60.8267545,41.8367755 C53.5457282,41.4962285 47.0525225,37.4357345 44.029149,31.3360316 C43.563952,30.4056376 43.170449,29.6007082 43.1525255,29.5827846 C43.134602,29.5469376 42.5089079,29.6365552 41.7398255,29.7970523 C35.6930786,31.0492552 29.0385611,30.1547081 23.7975583,27.3822641 C22.8850877,26.88122 22.1160054,26.5056406 22.0801583,26.5414876 C22.0263877,26.6131818 15.3718702,41.2998844 15.2464055,41.6396167 C15.1747114,41.8367755 15.3897938,41.8905461 16.3731437,41.8905461 C18.0905437,41.8905461 19.7720966,42.1944314 20.8809113,42.6954755 C22.0434966,43.2323667 23.5645524,44.6629902 24.1902465,45.7726196 C24.9772524,47.2570136 26.4445376,51.1211636 26.6229582,52.2479018 C27.1956964,55.8081664 24.9414053,59.4213869 21.5066054,60.4951692 C20.4157142,60.8349016 19.8608996,60.8528251 13.2422291,60.8349016 C8.05418217,60.8340869 5.96120281,60.7632075 5.44223517,60.6018957 Z M19.1276643,51.3712783 L19.1276643,49.4037636 L15.1918202,49.4037636 L11.2559762,49.4037636 L11.2559762,51.3712783 L11.2559762,53.3387929 L15.1918202,53.3387929 L19.1276643,53.3387929 L19.1276643,51.3712783 Z" id="Shape"></path>
                    </g>
                </g>
            </g>
        </g>
    </g>
</svg>