<?xml version="1.0" encoding="UTF-8"?>
<svg width="80px" height="80px" viewBox="0 0 80 80" version="1.1" xmlns="http://www.w3.org/2000/svg" xmlns:xlink="http://www.w3.org/1999/xlink">
    <!-- Generator: Sketch 47.1 (45422) - http://www.bohemiancoding.com/sketch -->
    <title>shape</title>
    <desc>Created with Sketch.</desc>
    <defs></defs>
    <g id="Page-1" stroke="none" stroke-width="1" fill="none" fill-rule="evenodd">
        <g id="Desktop-HD" transform="translate(-1140.000000, -3095.000000)" fill-rule="nonzero" fill="#000000">
            <g id="actividad" transform="translate(122.000000, 2880.000000)">
                <g id="nutrition" transform="translate(898.000000, 156.000000)">
                    <g id="shape" transform="translate(120.000000, 59.000000)">
                        <path d="M7.8693737,51.9774011 C8.06147265,45.7230014 4.56193093,43.3674482 0.293993418,41.8079096 C-1.12586838,47.1688237 2.79127975,51.6200069 7.8693737,51.9774011 Z" id="Shape"></path>
                        <path d="M8.86831001,23.9548023 C11.6128159,18.2093015 9.33975888,14.636884 6.01436061,11.5254237 C2.52900648,15.9621357 4.32219593,21.6253227 8.86831001,23.9548023 Z" id="Shape"></path>
                        <path d="M10.5915476,39.7740113 C10.4079101,33.5196116 13.8970218,31.1559358 18.1707662,29.6045198 C19.5814358,34.9573112 15.6666191,39.4084944 10.5915476,39.7740113 L10.5915476,39.7740113 Z" id="Shape"></path>
                        <path d="M10.5915476,49.2655367 C10.4079101,43.011137 13.8970218,40.6555838 18.1707662,39.0960452 C19.5814358,44.4488367 15.6666191,48.9081425 10.5915476,49.2655367 L10.5915476,49.2655367 Z" id="Shape"></path>
                        <path d="M10.5915476,30.0564972 C10.4079101,23.807089 13.8970218,21.4371835 18.1707662,19.8870056 C19.5814358,25.2355251 15.6666191,29.691272 10.5915476,30.0564972 L10.5915476,30.0564972 Z" id="Shape"></path>
                        <path d="M7.8693737,42.259887 C8.06147265,36.0054873 4.56193093,33.6418115 0.293993418,32.0903955 C-1.12586838,37.4431869 2.79127975,41.8943701 7.8693737,42.259887 Z" id="Shape"></path>
                        <path d="M7.8693737,32.5423729 C8.06147265,26.2929647 4.56193093,23.9230592 0.293993418,22.3728814 C-1.12586838,27.729517 2.79127975,32.1690316 7.8693737,32.5423729 Z" id="Shape"></path>
                        <path d="M56.8615385,80 L21.9076923,80 L39.3846154,50.8474576 L56.8615385,80 Z M28.8476811,76.1379807 L49.9130862,76.1379807 L39.3846154,58.5714962 L28.8476811,76.1379807 L28.8476811,76.1379807 Z" id="Shape"></path>
                        <polygon id="Shape" points="2.82699931 60.1129944 76.5538462 40.7495305 75.4583507 36.8361582 1.72307692 56.2077579"></polygon>
                        <path d="M54.8923077,0 C54.8923077,0 55.4292417,10.3133323 64.7081328,9.43890554 C64.7165224,9.43890554 65.756832,0.825393471 54.8923077,0 Z" id="Shape"></path>
                        <path d="M64.7342281,33.5200667 C63.7520708,34.8528855 62.1264312,35.7062147 60.2975867,35.7062147 C58.807417,35.7062147 57.342648,35.0316783 56.3604908,34.0889528 C54.345375,31.9759472 51.7291113,27.2541926 51.7291113,27.2541926 C50.2643423,24.4016351 49.4769231,22.1911062 49.4769231,19.9561965 C49.4769231,15.2019341 53.4902208,11.0734463 58.4602753,11.0734463 C60.9072015,11.0734463 63.1170554,12.0161719 64.742695,13.5359105 C66.3683346,12.0161719 68.5697215,11.0734463 71.0166478,11.0734463 C75.9867022,11.0734463 80,15.2019341 80,19.9561965 C80,22.1911062 79.2125808,24.4016351 77.7478118,27.2541926 C77.7478118,27.2541926 75.1315481,31.9759472 73.1164323,34.0889528 C72.134275,35.0316783 70.669506,35.7062147 69.1708695,35.7062147 C67.3335581,35.7062147 65.7079185,34.8528855 64.7342281,33.5200667 L64.7342281,33.5200667 Z" id="Shape"></path>
                    </g>
                </g>
            </g>
        </g>
    </g>
</svg>