<?xml version="1.0" encoding="UTF-8"?>
<svg width="204px" height="190px" viewBox="0 0 204 190" version="1.1" xmlns="http://www.w3.org/2000/svg" xmlns:xlink="http://www.w3.org/1999/xlink">
    <!-- Generator: Sketch 47.1 (45422) - http://www.bohemiancoding.com/sketch -->
    <title>pareja</title>
    <desc>Created with Sketch.</desc>
    <defs></defs>
    <g id="tarifa" stroke="none" stroke-width="1" fill="none" fill-rule="evenodd">
        <g id="Desktop-HD" transform="translate(-320.000000, -5534.000000)" fill-rule="nonzero" fill="#000000">
            <g id="parejas" transform="translate(124.000000, 5477.000000)">
                <g id="pareja" transform="translate(196.000000, 57.000000)">
                    <g id="Group" transform="translate(102.000000, 95.000000) scale(-1, 1) rotate(-180.000000) translate(-102.000000, -95.000000) ">
                        <path d="M40.8978367,188.95023 C27.9667347,184.001316 21.8446531,169.93565 27.5275102,158.123657 C29.682,153.712125 31.9364082,151.016882 35.8040816,148.469524 C40.9956735,144.989037 47.265551,143.7164 52.8484898,145.039027 C60.7836735,146.853212 68.1797143,154.153694 70.3342041,162.339399 C72.93,172.141416 67.444898,183.020281 57.403102,187.971278 C53.9746531,189.685486 53.3876327,189.83337 48.7830612,189.931265 C44.6197959,190.077066 43.3957959,189.929182 40.8978367,188.95023 Z M55.1507755,180.422934 C57.550898,179.148213 60.4402041,176.011401 61.4685306,173.561938 C61.9098367,172.532997 62.3990204,170.37722 62.5468163,168.710919 C63.0859592,162.780969 60.2944898,157.292589 55.346449,154.547358 C52.898449,153.224731 52.2115102,153.076847 48.2439184,153.076847 C43.2001224,153.076847 40.6022449,154.007893 37.762898,156.80103 C34.9714286,159.546262 33.7953061,162.73098 33.8452653,167.288314 C33.8952245,173.805635 36.0497143,177.629796 41.1913469,180.227143 C44.1784898,181.74556 44.5698367,181.795549 48.733102,181.647665 C51.9658776,181.499781 53.6811429,181.158189 55.1507755,180.422934 Z" id="Shape"></path>
                        <path d="M150.658163,189.537601 C141.694653,188.067091 133.074612,179.148213 131.850612,170.081451 C130.185306,158.123657 138.953143,146.509537 151.197306,144.401666 C157.906408,143.27483 164.861143,145.676387 170.25049,151.114777 C179.605347,160.427319 179.605347,173.559855 170.202612,182.970292 C166.822041,186.3508 162.365265,188.752357 158.006327,189.537601 C154.773551,190.127055 154.136571,190.127055 150.658163,189.537601 Z M160.895633,180.079259 C165.695878,177.923482 168.38951,173.855624 168.878694,168.267266 C169.367878,162.043631 166.528531,156.701052 161.434776,154.055799 C158.936816,152.781079 158.006327,152.585288 154.577878,152.585288 C151.492898,152.585288 150.071143,152.831068 148.162286,153.712125 C145.22302,155.08474 142.77502,157.290506 141.403224,159.93576 C140.031429,162.631002 139.690041,169.002521 140.766245,172.285135 C143.359959,180.129248 152.714816,183.755536 160.895633,180.079259 Z" id="Shape"></path>
                        <path d="M14.8399592,142.981144 C10.7745306,141.706424 6.21991837,138.178031 3.57416327,134.305964 C0,129.013374 0,129.161258 0,102.744135 L0,79.3201052 L4.16326531,79.3201052 L8.32653061,79.3201052 L8.32653061,102.500439 C8.32653061,128.376014 8.3764898,128.671783 11.6092653,131.904407 C13.7158776,134.012278 15.8703673,135.089125 18.8096327,135.482789 L21.0619592,135.826463 L21.0619592,139.894321 L21.0619592,144.010086 L19.4944898,143.960096 C18.6118776,143.960096 16.5052653,143.518527 14.8399592,142.981144 Z" id="Shape"></path>
                        <path d="M74.9366939,139.990134 L74.9366939,135.824381 L77.1411429,135.530695 C81.8914286,134.845429 85.6133878,131.708617 86.9373061,127.249178 C87.5742857,125.141307 87.6721224,121.073449 87.6721224,102.010963 L87.6721224,79.3201052 L91.8353878,79.3201052 L95.9986531,79.3201052 L95.9986531,101.863078 C95.9986531,116.41822 95.8029796,125.289191 95.4595102,126.955492 C94.6768163,130.58178 92.2766939,134.943324 89.4352653,137.78645 C86.5459592,140.677483 81.1087347,143.422714 77.4846122,143.864284 L74.9366939,144.15797 L74.9366939,139.990134 L74.9366939,139.990134 Z" id="Shape"></path>
                        <path d="M126.561184,142.147994 C124.258898,140.433786 121.760939,137.688555 120.682653,135.532778 C119.897878,134.062267 104.814367,88.0431923 104.814367,87.1621355 C104.814367,86.9663451 106.529633,86.1811006 108.586286,85.4958342 C111.475592,84.5147994 112.456041,84.368998 112.651714,84.8105679 C112.749551,85.1521596 116.275837,96.0331068 120.489061,108.971936 C126.856776,128.428086 128.424245,132.741723 129.598286,134.014361 C130.383061,134.847512 131.311469,135.630673 131.704898,135.778557 C132.291918,135.926442 132.146204,136.709603 131.020041,139.74852 C130.285224,141.806402 129.404694,143.522692 129.061224,143.522692 C128.717755,143.522692 127.58951,142.883249 126.561184,142.147994 Z" id="Shape"></path>
                        <path d="M177.546612,139.746437 C176.616122,137.246985 176.322612,135.924359 176.713959,135.776474 C177.840122,135.4328 179.798939,133.570708 180.435918,132.345977 C180.779388,131.610721 184.451388,120.681868 188.566776,107.988818 C192.632204,95.3457575 196.15849,84.808485 196.306286,84.6606007 C196.893306,84.1211357 204.19151,86.6705766 203.995837,87.3079369 C203.898,87.6516115 200.371714,98.3825915 196.258408,111.175619 C192.095143,124.016553 188.373184,135.189103 187.931878,136.022254 C187.490571,136.855405 186.512204,138.22802 185.777388,139.109077 C184.357714,140.825367 180.487959,143.52061 179.459633,143.52061 C179.164041,143.518527 178.281429,141.804319 177.546612,139.746437 Z" id="Shape"></path>
                        <path d="M18.7097143,66.9686472 L18.8575102,12.9117518 L20.1314694,10.1665205 C21.8946122,6.44233721 24.3446939,3.84499013 28.0166939,1.83501425 C30.8581224,0.316597237 31.4451429,0.168713002 35.2649388,0.168713002 C38.7912245,0.168713002 39.819551,0.364503398 42.1218367,1.49133962 C43.6393469,2.22659504 45.452449,3.5013155 46.2351429,4.28447709 L47.6069388,5.7049989 L50.5462041,3.54922166 C55.9334694,-0.370752028 61.8598776,-1.05810129 67.3449796,1.63714098 C70.7734286,3.30344223 74.5453469,7.46919535 75.8671837,10.9496821 C76.8955102,13.6449244 76.8955102,14.2822846 76.8955102,67.3081561 L76.8955102,120.971388 L72.7322449,120.971388 L68.5689796,120.971388 L68.5689796,67.4539575 C68.5689796,17.4170138 68.5190204,13.7907257 67.688449,12.2223197 C66.2687755,9.331287 64.6034694,8.49813637 60.4880816,8.49813637 C56.4226531,8.49813637 54.8551837,9.28129796 53.142,12.2223197 C52.2115102,13.8407148 52.161551,14.9175619 52.0158367,46.6251918 L51.8680408,79.3138566 L47.7047755,79.3138566 L43.5914694,79.3138566 L43.5914694,46.8209822 L43.5914694,14.3281079 L42.5131837,12.1723306 C41.0935102,9.47708836 38.8890612,8.25235694 35.3627755,8.25235694 C32.13,8.25235694 29.4863265,9.5270774 28.1624082,11.7807498 C27.1819592,13.3491559 27.1819592,14.3780969 27.0362449,67.208178 L26.9384082,120.969305 L22.7751429,120.969305 L18.6118776,120.969305 L18.7097143,66.9686472 Z" id="Shape"></path>
                        <path d="M132.731143,118.3303 C132.731143,118.232405 128.861388,105.930936 124.111102,90.984214 C115.538939,63.9318132 115.538939,63.8818242 116.078082,61.3344661 C116.469429,59.5702697 117.204245,58.1497479 118.478204,56.679237 L120.389143,54.5713659 L125.924204,54.3255865 L131.507143,54.0798071 L131.752776,32.515786 C131.948449,16.6859241 132.144122,10.6580794 132.585429,9.8728349 C133.711592,7.96075422 137.140041,5.46130235 139.883633,4.58024556 C143.605592,3.4034203 149.23849,3.74709494 152.423388,5.31550099 L154.725673,6.49232624 L157.27151,5.26759483 C159.426,4.28655996 160.602122,4.09076957 164.276204,4.09076957 C168.145959,4.09076957 169.076449,4.28655996 171.18098,5.41339619 C173.972449,6.88390704 176.029102,8.89388292 176.763918,10.8538698 C177.107388,11.7370094 177.303061,19.6269458 177.303061,33.2989476 L177.303061,54.3235036 L182.103306,54.3235036 C186.364408,54.3235036 187.051347,54.4713879 188.666694,55.548235 C190.62551,56.8708617 192.977755,61.0366148 192.977755,63.2423811 C192.977755,64.5171015 175.737673,117.78667 175.148571,118.42403 C174.707265,118.815611 167.50898,116.464043 167.50898,115.876672 C167.50898,115.630892 171.378735,103.673098 176.081143,89.313747 C180.783551,74.954396 184.653306,63.0944968 184.653306,62.9466126 C184.653306,62.7987283 181.12702,62.652927 176.815959,62.652927 L168.978612,62.652927 L168.978612,38.0020829 C168.978612,19.4769787 168.830816,13.2033545 168.391592,12.7638676 C168.048122,12.4201929 166.334939,12.1764964 164.080531,12.1764964 C161.043429,12.1764964 160.162898,12.3722868 159.525918,13.0575532 C158.791102,13.8907038 158.693265,16.4401447 158.693265,39.2768033 L158.693265,64.6129138 L154.53,64.6129138 L150.366735,64.6129138 L150.366735,38.9831177 C150.366735,19.7227582 150.218939,13.2054374 149.779714,12.7638676 C149.142735,12.1265073 142.285837,11.9307169 140.866163,12.470182 C140.181306,12.7159614 140.083469,15.4112037 140.083469,37.7083973 L140.083469,62.652927 L131.952612,62.652927 C124.850082,62.652927 123.871714,62.7508222 124.115265,63.3881824 C124.947918,65.6418549 140.572653,115.287218 140.572653,115.776694 C140.572653,116.120368 139.055143,116.855624 137.242041,117.442995 C134.005102,118.476102 132.731143,118.721881 132.731143,118.3303 Z" id="Shape"></path>
                    </g>
                </g>
            </g>
        </g>
    </g>
</svg>