<?xml version="1.0" encoding="UTF-8"?>
<svg width="80px" height="60px" viewBox="0 0 80 60" version="1.1" xmlns="http://www.w3.org/2000/svg" xmlns:xlink="http://www.w3.org/1999/xlink">
    <!-- Generator: Sketch 47.1 (45422) - http://www.bohemiancoding.com/sketch -->
    <title>Shape</title>
    <desc>Created with Sketch.</desc>
    <defs></defs>
    <g id="Page-1" stroke="none" stroke-width="1" fill="none" fill-rule="evenodd">
        <g id="Desktop-HD" transform="translate(-840.000000, -3105.000000)" fill-rule="nonzero" fill="#000000">
            <g id="actividad" transform="translate(122.000000, 2880.000000)">
                <g id="personal-training" transform="translate(598.000000, 156.000000)">
                    <path d="M159.665392,109.668443 C152.611411,108.510449 153.565533,100.828541 153.37797,100.665443 C153.345351,100.673598 153.345351,100.673598 153.369815,100.665443 C153.37797,100.665443 153.37797,100.665443 153.37797,100.665443 C153.630772,100.567584 155.702114,99.6379269 155.702114,99.6379269 C159.844799,97.0528263 160.032362,90.6675464 160.032362,90.6675464 L160.032362,80.6696495 C160.032362,80.6696495 157.373867,69.0326196 150.768405,69.0326196 L145.076291,69.0326196 C137.728734,69.0326196 135.045775,80.6696495 135.045775,80.6696495 C135.045775,80.6696495 135.102859,83.9479159 135.045775,89.0039485 C134.98869,94.0599812 139.808231,100.053826 139.808231,100.053826 C139.808231,100.053826 141.414745,100.616514 141.683856,100.673598 C141.692011,100.665443 141.700166,100.657288 141.708321,100.665443 C141.74094,100.681753 141.724631,100.681753 141.683856,100.673598 C141.447364,100.991639 141.096704,108.518604 136.831696,109.668443 C129.78587,111.568533 123.710476,115.800922 122.348609,117.244337 C120,120.628617 120.081549,128.987381 120.081549,128.987381 L175.021052,128.987381 C175.021052,128.987381 174.409435,119.005794 173.357454,117.325886 C172.305473,115.645979 166.858006,110.850902 159.665392,109.668443 Z M199.999484,128.995536 C199.999484,128.995536 199.249234,120.465519 198.164634,119.274905 C197.080033,118.076136 192.815025,113.982381 187.065827,113.003794 C181.316628,112.025207 182.450158,106.169995 182.254441,106.276008 C182.066878,106.382022 183.893574,104.702114 183.893574,104.702114 C187.20446,102.565533 187.18815,96.8326442 187.18815,96.8326442 L187.18815,89.2975246 C187.18815,89.2975246 185.296215,79.0060517 180.011846,79.0060517 L175.012897,79.0060517 C169.13322,79.0060517 168.03231,89.2975246 168.03231,89.2975246 C168.03231,89.2975246 168.081239,92.0375681 168.03231,96.2210274 C167.983381,100.404487 171.171943,105.04462 171.171943,105.04462 C171.171943,105.04462 172.998639,106.732682 172.811076,106.618514 C172.696908,106.553275 172.525655,108.437055 171.702011,110.206666 C171.83249,110.271905 171.979278,110.320835 172.101601,110.394229 C180.957813,114.284112 180.02,128.971071 180.02,128.995536 L199.999484,128.995536 Z" id="Shape"></path>
                </g>
            </g>
        </g>
    </g>
</svg>